<?xml version="1.0" encoding="UTF-8" standalone="no"?>
<!-- Created with Inkscape (http://www.inkscape.org/) -->

<svg
   width="255.99998"
   height="255.99998"
   viewBox="0 0 67.733328 67.733329"
   version="1.1"
   id="svg1"
   xml:space="preserve"
   xmlns="http://www.w3.org/2000/svg"
   xmlns:svg="http://www.w3.org/2000/svg"><defs
     id="defs1" /><g
     id="layer1"
     transform="translate(-73.34324)"><g
       id="layer1-8"
       transform="matrix(0.33974948,0,0,0.33974948,73.062453,0.14032765)"><path
         d="m 75.145251,99.966167 c -1.487173,0.842893 -3.039253,1.548083 -4.630619,2.140373 a 32.064526,32.064526 0 0 1 -0.311923,0.11774 c -1.570423,0.56598 -3.181025,1.00863 -4.820347,1.32359 a 32.064526,32.064526 0 0 1 -0.322858,0.0573 c -1.671672,0.3035 -3.367529,0.489 -5.077602,0.52352 v 0.0682 a 16.35157,22.206468 0 0 1 15.96149,22.18194 16.35157,22.206468 0 0 1 -15.96149,22.13694 v 11.15271 l 0.787206,0.002 A 32.064526,32.064526 0 0 0 91.65599,127.73903 32.064526,32.064526 0 0 0 75.618605,99.96753 Z"
         style="fill:#ffa101;stroke-width:0.373367;stroke-linecap:round;paint-order:stroke markers fill"
         id="path109" /><path
         d="m 59.981902,40.058168 v 12.779867 c 8.872403,0.277578 15.956732,9.777008 15.964062,21.406327 -0.0254,11.612318 -7.104597,21.085462 -15.964062,21.362597 v 0.08237 c -0.130096,-0.0061 -0.26023,-0.01065 -0.390387,-0.01475 -1.745777,0.02305 -3.486776,0.188695 -5.205588,0.495212 -0.113342,0.01987 -0.227131,0.03749 -0.340223,0.0585 -1.680516,0.313227 -3.333311,0.76035 -4.942544,1.337087 -0.108152,0.03872 -0.215106,0.08093 -0.322856,0.120906 -1.638869,0.601919 -3.225856,1.336688 -4.745099,2.196984 -0.02145,0.01342 -0.04288,0.02705 -0.06432,0.04057 -10.093793,5.630412 -16.376309,16.257472 -16.443845,27.815232 0.06174,17.18383 13.659066,31.2642 30.830281,31.92555 l 1.624576,0.004 V 148.5159 c -0.129919,0.0253 -0.260057,0.0485 -0.390387,0.0695 -9.030552,-2.6e-4 -16.351203,-9.94234 -16.351233,-22.20641 3e-5,-12.26405 7.320681,-22.20612 16.351233,-22.20639 0.130216,-0.0138 0.260349,-0.0284 0.390387,-0.0436 1.703752,-0.0393 3.401677,-0.21435 5.077603,-0.52351 0.10753,-0.0196 0.215558,-0.0366 0.322857,-0.0573 1.638771,-0.31509 3.250462,-0.75763 4.820348,-1.32358 0.104542,-0.0377 0.20776,-0.0789 0.311923,-0.11774 1.597929,-0.58935 3.14638,-1.30507 4.630619,-2.140383 0.07178,-0.04497 0.143386,-0.09025 0.21481,-0.135699 C 85.368133,94.178265 91.585374,83.601492 91.65599,72.107846 91.649156,54.556314 77.532133,40.271888 59.981902,40.058168 Z"
         style="fill:#00bbcc;stroke-width:0.373367;stroke-linecap:round;paint-order:stroke markers fill"
         id="path108" /><path
         d="m 59.591515,40.043375 a 32.064526,32.064526 0 0 0 -32.06447,32.064471 32.064526,32.064526 0 0 0 16.379531,27.774716 l 0.128629,6.35e-4 c 1.522433,-0.868133 3.113307,-1.592167 4.745099,-2.196964 a 32.064526,32.064526 0 0 1 0.322856,-0.120906 c 1.609784,-0.577044 3.26142,-1.023737 4.942544,-1.337097 a 32.064526,32.064526 0 0 1 0.340223,-0.0585 c 1.714272,-0.300482 3.452974,-0.477344 5.205588,-0.495221 a 16.354428,21.430129 0 0 1 -16.35445,-21.430153 16.354428,21.430129 0 0 1 16.35445,-21.430123 16.354428,21.430129 0 0 1 0.390387,0.0238 V 40.058168 a 32.064526,32.064526 0 0 0 -0.390387,-0.0148 z"
         style="fill:#ffa101;stroke-width:0.373367;stroke-linecap:round;paint-order:stroke markers fill"
         id="path110" /><path
         d="m 111.95546,136.60852 c 3.2878,0.006 6.40399,1.5145 8.50876,4.11931 1.66923,2.05462 2.5865,4.64816 2.59186,7.3286 -0.0307,2.64172 -0.94642,5.19118 -2.59186,7.21607 -2.08371,2.64687 -5.20299,4.19826 -8.50876,4.23186 -3.26269,-0.0378 -6.34405,-1.554 -8.42516,-4.1457 -1.69403,-2.03554 -2.64117,-4.62 -2.6761,-7.30223 0.0349,-2.68222 0.98207,-5.26667 2.6761,-7.30222 2.08111,-2.59168 5.16247,-4.10791 8.42516,-4.14569 z"
         style="fill:#ffa101;stroke-width:0.559889;stroke-linecap:round;paint-order:stroke markers fill"
         id="path112" /><path
         d="m 158.21149,136.64196 c 2.10352,0.006 4.16197,0.62923 5.93555,1.79566 3.2094,2.09435 5.1576,5.73548 5.16507,9.65226 -0.0253,1.00019 -0.17742,1.99266 -0.45277,2.95202 -1.28894,4.9819 -5.64824,8.46046 -10.64785,8.49655 -2.05069,-0.0364 -4.05157,-0.6579 -5.78057,-1.79566 -3.26889,-2.05609 -5.27961,-5.7044 -5.32006,-9.65291 0.006,-1.15453 0.18283,-2.30135 0.52223,-3.40157 1.44188,-4.77819 5.72604,-8.03688 10.5784,-8.04635 z"
         style="fill:#00bbcc;stroke-width:0.559889;stroke-linecap:round;paint-order:stroke markers fill"
         id="path113" /><path
         d="m 120.46422,40.207376 v 6.237832 0.619346 15.222518 c 3.7063,-3.00954 8.29477,-4.67964 13.04033,-4.746384 0.13511,0.0051 0.27019,0.01158 0.40519,0.01929 11.62546,0.224174 20.93687,9.851528 20.94519,21.655866 -0.0352,6.030913 -2.54412,11.77436 -6.92342,15.849578 -3.9183,3.711292 -9.06822,5.791038 -14.42696,5.826228 -0.69435,-0.058 -1.38547,-0.15055 -2.0709,-0.27721 l 6.30663,17.15839 6.68289,18.1829 c 3.47144,-4.00853 8.49288,-6.33034 13.78832,-6.37547 0.90654,0.007 1.81131,0.0819 2.70697,0.22252 l -6.64429,-17.77256 c 11.20722,-7.13628 18.00739,-19.504861 18.03692,-32.806659 -0.004,-21.443784 -17.30089,-38.857235 -38.70941,-38.969883 l -0.26563,-0.0012 -5.90468,-0.02058 z"
         style="fill:#00bbcc;stroke-width:0.0976625;stroke-linecap:round;paint-order:stroke markers fill"
         id="path114" /><path
         d="m 103.5303,40.147564 v 38.145375 1.92428 51.473191 c 2.59819,-1.3763 5.48663,-2.11119 8.42516,-2.14358 2.96261,0.002 5.88101,0.72071 8.50876,2.09213 V 111.4456 47.064554 46.445208 40.207376 l -2.29601,-0.0077 z"
         style="fill:#ffa101;stroke-width:0.0976625;stroke-linecap:round;paint-order:stroke markers fill"
         id="path111" /></g></g></svg>
