<?xml version="1.0" encoding="UTF-8" standalone="no"?>
<!-- Created with Inkscape (http://www.inkscape.org/) -->

<svg
   width="256"
   height="256"
   viewBox="0 0 67.733332 67.733333"
   version="1.1"
   id="svg1"
   xml:space="preserve"
   xmlns="http://www.w3.org/2000/svg"
   xmlns:svg="http://www.w3.org/2000/svg"><defs
     id="defs1" /><g
     id="layer1"><path
       style="fill:#000000;stroke-width:0.606562"
       d="m 14.20919,56.463433 v -1.002008 h 0.511438 c 0.28129,0 0.575525,0.01633 0.653853,0.0363 0.248945,0.06345 0.397163,0.243647 0.397163,0.482876 0,0.119469 -0.02248,0.17419 -0.116836,0.284428 l -0.116836,0.136497 0.147659,0.123427 c 0.112299,0.09387 0.153038,0.155269 0.170126,0.256404 0.04885,0.289124 -0.128649,0.571359 -0.406793,0.646841 -0.07473,0.02028 -0.384245,0.03695 -0.687819,0.03706 l -0.551954,1.91e-4 z m 1.167209,0.64073 c 0.121288,-0.121288 0.124097,-0.320554 0.0062,-0.438475 -0.07798,-0.07798 -0.106548,-0.08338 -0.441563,-0.08338 h -0.358204 v 0.305697 0.305698 h 0.352016 c 0.33505,0 0.356332,-0.0044 0.441563,-0.08955 z m -0.04632,-0.895477 c 0.104584,-0.104583 0.09261,-0.31532 -0.02307,-0.406326 -0.07993,-0.06288 -0.128531,-0.07041 -0.399106,-0.06191 l -0.30809,0.0097 -0.0099,0.263241 -0.0099,0.263239 h 0.341093 c 0.295804,0 0.350112,-0.009 0.409025,-0.06793 z m 1.673778,1.208831 c -0.16959,-0.0617 -0.298647,-0.17182 -0.368418,-0.314372 -0.05636,-0.115138 -0.06383,-0.216722 -0.06466,-0.877476 l -9.09e-4,-0.747261 h 0.169831 0.169832 l 0.01777,0.730278 c 0.0098,0.401652 0.0304,0.756716 0.04583,0.78903 0.08163,0.170963 0.429094,0.250339 0.633389,0.144693 0.174005,-0.08998 0.185213,-0.143541 0.197518,-0.94389 l 0.0114,-0.740443 0.171011,0.01019 0.17101,0.01019 -0.0058,0.696553 c -0.0063,0.755291 -0.02389,0.892146 -0.134841,1.047971 -0.145445,0.204258 -0.695762,0.309973 -1.012945,0.194585 z m 1.926659,-0.954084 v -1.002008 h 0.28752 c 0.243327,0 0.292607,0.0095 0.32062,0.06184 0.03152,0.05891 0.104754,0.314608 0.24006,0.838262 0.120075,0.464681 0.157259,0.503056 0.23041,0.237764 0.02061,-0.07473 0.06848,-0.242859 0.106391,-0.37363 0.03791,-0.130771 0.09518,-0.337116 0.127258,-0.458546 0.03209,-0.12143 0.0728,-0.239888 0.09049,-0.263239 0.02094,-0.02765 0.125469,-0.04246 0.299731,-0.04246 h 0.267573 v 1.002008 1.002008 h -0.169834 -0.169832 v -0.215381 c 0,-0.470069 -0.04626,-1.245173 -0.0743,-1.245173 -0.0358,0 -0.02438,-0.03974 -0.18028,0.628377 -0.06974,0.298905 -0.140344,0.578572 -0.156893,0.621485 -0.01655,0.04292 -0.03009,0.107871 -0.03009,0.144357 0,0.05756 -0.0241,0.06633 -0.1824,0.06633 h -0.182402 l -0.04052,-0.161341 c -0.02229,-0.08874 -0.05425,-0.214837 -0.07104,-0.280223 -0.01679,-0.06539 -0.07629,-0.308002 -0.132239,-0.539149 -0.05595,-0.231146 -0.110868,-0.429408 -0.122037,-0.440579 -0.06029,-0.06029 -0.08356,0.147555 -0.08403,0.750455 l -5.2e-4,0.670837 h -0.186815 -0.186815 z m 2.71649,0.986801 c -4.51e-4,-0.01031 -0.0012,-0.458199 -0.0016,-0.995292 l -8.49e-4,-0.976534 h 0.179967 0.179968 v 0.985025 0.985025 l -0.178324,0.01031 c -0.09808,0.0056 -0.178693,0.0018 -0.179146,-0.0085 z m 3.737126,-0.02757 c -0.173285,-0.05226 -0.330757,-0.180221 -0.40791,-0.331455 -0.0372,-0.0729 -0.06762,-0.141174 -0.06762,-0.151721 0,-0.02372 0.118001,-0.0692 0.259108,-0.09988 0.09226,-0.02005 0.108877,-0.01266 0.126126,0.05606 0.01092,0.04354 0.06627,0.123611 0.12298,0.177944 0.209025,0.200259 0.675767,0.13372 0.73565,-0.104874 0.01259,-0.05017 0.0079,-0.115611 -0.01043,-0.14541 -0.04173,-0.06785 -0.218783,-0.155928 -0.418239,-0.208068 -0.462837,-0.120997 -0.618309,-0.214571 -0.696459,-0.419204 -0.184693,-0.483612 0.324518,-0.851889 0.961641,-0.69549 0.209774,0.0515 0.332774,0.141035 0.414915,0.302042 0.105432,0.206663 0.09299,0.236259 -0.09932,0.236259 -0.154393,0 -0.17159,-0.0086 -0.236928,-0.119408 -0.114785,-0.194543 -0.394382,-0.248422 -0.609271,-0.117406 -0.08864,0.05404 -0.110297,0.08759 -0.101903,0.157854 0.01488,0.124477 0.136613,0.200573 0.449836,0.281202 0.148136,0.03814 0.334798,0.101017 0.414807,0.139753 0.333473,0.161431 0.409358,0.614244 0.146919,0.876683 -0.179413,0.179413 -0.665853,0.261047 -0.983911,0.165119 z m 1.868152,-0.95988 v -1.002675 l 0.738769,0.0091 0.738769,0.0091 v 0.118886 0.118886 l -0.543463,0.01698 -0.543462,0.01698 -0.01007,0.229273 -0.01007,0.229273 h 0.511048 0.511047 v 0.134958 0.134958 l -0.501004,0.0095 -0.501004,0.0095 v 0.339664 0.339663 l 0.551954,0.0093 0.551954,0.0093 v 0.135024 0.135024 h -0.747261 -0.74726 z m 2.241781,0.0024 v -1.003789 h 0.511438 c 0.575809,0 0.787708,0.03768 0.924184,0.164327 0.175982,0.163312 0.206134,0.545993 0.05927,0.752244 -0.03744,0.05258 -0.136846,0.123878 -0.220907,0.158449 -0.08406,0.03456 -0.152896,0.07187 -0.152966,0.08287 -7.1e-5,0.01104 0.05375,0.06904 0.119589,0.128959 0.107313,0.09766 0.491677,0.641308 0.491677,0.695445 0,0.01201 -0.09646,0.02171 -0.214345,0.02171 h -0.214344 l -0.233856,-0.342422 c -0.128621,-0.18833 -0.271143,-0.371749 -0.316716,-0.407596 -0.09612,-0.0756 -0.378372,-0.09244 -0.380988,-0.02272 -8.49e-4,0.02335 -0.0046,0.202949 -0.0085,0.399105 l -0.0069,0.356646 -0.178323,0.01031 -0.178325,0.01031 z m 0.967133,-0.119602 c 0.171674,-0.0398 0.221691,-0.109921 0.221691,-0.31078 0,-0.13334 -0.01531,-0.172925 -0.08949,-0.231274 -0.07515,-0.05911 -0.137437,-0.0704 -0.388609,-0.0704 -0.194674,0 -0.307838,0.01412 -0.324103,0.04043 -0.02989,0.04836 -0.02688,0.520998 0.0036,0.570355 0.02647,0.04284 0.394741,0.04389 0.576893,0.0016 z m 1.425881,1.076917 c -0.0091,-0.02361 -0.0124,-0.470687 -0.0074,-0.993516 l 0.0091,-0.950601 0.441563,-0.0108 c 0.57651,-0.01405 0.757074,0.02492 0.912419,0.19687 0.191735,0.212228 0.208869,0.57704 0.0377,0.802621 -0.123599,0.162886 -0.290086,0.223738 -0.676428,0.24724 l -0.34162,0.02078 -0.0096,0.365138 -0.0097,0.36514 h -0.169749 c -0.105432,0 -0.175988,-0.01626 -0.186217,-0.04292 z m 0.959083,-1.042367 c 0.150719,-0.09189 0.20109,-0.27695 0.120257,-0.441786 -0.08048,-0.164099 -0.182881,-0.207352 -0.466327,-0.196954 l -0.237764,0.0087 -0.0099,0.303009 c -0.0055,0.166655 -0.0022,0.323325 0.0074,0.348155 0.0287,0.0748 0.454118,0.05945 0.586308,-0.02114 z m 1.810795,1.038699 c -0.291272,-0.09669 -0.431721,-0.219375 -0.545444,-0.476465 -0.204385,-0.462044 -0.06155,-1.096284 0.297489,-1.320983 0.503403,-0.315045 1.225217,-0.125866 1.441511,0.377803 0.08909,0.207467 0.08851,0.723321 -10e-4,0.928443 -0.179883,0.411972 -0.738273,0.641979 -1.192496,0.491202 z m 0.536658,-0.273063 c 0.238399,-0.124545 0.359726,-0.3707 0.354693,-0.719618 -0.0058,-0.403623 -0.20444,-0.659441 -0.53159,-0.684684 -0.144748,-0.01116 -0.195972,0.0018 -0.314173,0.07964 -0.215344,0.141777 -0.283353,0.291024 -0.283353,0.621826 0,0.210193 0.01713,0.312411 0.07188,0.428871 0.125815,0.267661 0.462962,0.399135 0.70255,0.273969 z m 1.475335,-0.672075 0.009,-0.995311 0.173746,-0.01007 0.173745,-0.01007 0.101599,0.162958 c 0.05588,0.08962 0.194399,0.315805 0.307819,0.50262 0.275628,0.453991 0.373573,0.594412 0.414607,0.594412 0.02184,0 0.03428,-0.22874 0.03428,-0.630153 v -0.630153 l 0.178324,0.01031 0.178323,0.01031 v 0.985025 0.985025 l -0.203799,0.0096 -0.203797,0.0096 -0.101902,-0.174342 c -0.05605,-0.09589 -0.117188,-0.199554 -0.135868,-0.230369 -0.01868,-0.03081 -0.138593,-0.22877 -0.266465,-0.439903 -0.127873,-0.211132 -0.249798,-0.378108 -0.270944,-0.37106 -0.02661,0.0089 -0.03869,0.194933 -0.03923,0.604658 l -7.88e-4,0.591843 -0.17884,0.01031 -0.17884,0.01031 z m 2.923346,0.926752 c -0.242285,-0.0826 -0.38448,-0.199825 -0.503354,-0.414966 -0.09297,-0.168259 -0.100811,-0.209005 -0.101029,-0.525315 -2.51e-4,-0.357541 0.02032,-0.43143 0.181022,-0.650083 0.260254,-0.35411 0.970945,-0.461736 1.341754,-0.20319 0.108466,0.07563 0.294185,0.317584 0.294185,0.383269 0,0.03543 -0.338698,0.139478 -0.354237,0.108817 -0.0025,-0.005 -0.02653,-0.05253 -0.05327,-0.105469 -0.169486,-0.335697 -0.717102,-0.331112 -0.942387,0.0079 -0.06642,0.09994 -0.07662,0.15915 -0.07614,0.441564 6.67e-4,0.387726 0.0699,0.549046 0.288847,0.673053 0.183092,0.103698 0.365883,0.09846 0.576737,-0.01652 0.167311,-0.09124 0.169984,-0.09525 0.180099,-0.270938 l 0.01031,-0.178323 H 40.212276 39.98972 v -0.135865 -0.135866 h 0.407596 0.407598 v 0.425019 0.42502 l -0.178325,0.08116 c -0.36494,0.166083 -0.72153,0.197374 -1.034254,0.09077 z m 4.216987,0.02205 c -0.0091,-0.02361 -0.0124,-0.470687 -0.0074,-0.993516 l 0.0091,-0.950601 0.439549,-0.0096 c 0.604968,-0.01315 0.774883,0.02625 0.97522,0.226147 0.119093,0.118826 0.172314,0.20685 0.216065,0.35735 0.07389,0.254188 0.074,0.567256 2.81e-4,0.82248 -0.07468,0.258564 -0.296419,0.485247 -0.536187,0.548154 -0.221635,0.05816 -1.074193,0.05779 -1.096547,-4.59e-4 z M 44.828982,57.1453 c 0.192946,-0.08061 0.269293,-0.27277 0.270933,-0.681896 0.0011,-0.279824 -0.01055,-0.359982 -0.06639,-0.454995 -0.12493,-0.212643 -0.222885,-0.2583 -0.554162,-0.2583 h -0.294824 l -0.0092,0.67837 c -0.0051,0.373104 -0.0018,0.697906 0.0074,0.721785 0.02343,0.06105 0.496994,0.0574 0.64626,-0.005 z m 1.206717,0.274901 c 0,-0.02674 0.03625,-0.14595 0.08055,-0.264934 0.0443,-0.118983 0.114336,-0.315686 0.155621,-0.437116 0.101369,-0.298125 0.262925,-0.749152 0.416714,-1.163349 0.03405,-0.09171 0.03986,-0.09341 0.319275,-0.09341 0.156527,0 0.284594,0.0038 0.284594,0.0085 0,0.0046 0.07504,0.222505 0.166758,0.48402 0.09171,0.261516 0.215008,0.613046 0.273982,0.78118 0.05897,0.168134 0.119589,0.336268 0.13471,0.373631 0.147113,0.363591 0.148931,0.356647 -0.09339,0.356647 h -0.197258 l -0.06785,-0.21229 -0.06785,-0.212291 -0.429468,-0.0095 c -0.482828,-0.01068 -0.462036,-0.02117 -0.54796,0.276647 l -0.04052,0.140443 -0.193956,0.01019 c -0.150341,0.0079 -0.193955,-7.28e-4 -0.193955,-0.03841 z m 1.24651,-0.694998 c 0.03702,-0.02353 -0.07968,-0.439432 -0.233102,-0.830736 -0.0387,-0.0987 -0.08953,-0.121876 -0.111741,-0.05095 -0.0073,0.02335 -0.07007,0.223678 -0.139462,0.445169 -0.103952,0.331794 -0.117867,0.407965 -0.07905,0.432551 0.05777,0.03659 0.507059,0.03975 0.563353,0.004 z m 1.300969,-0.261791 v -1.002008 h 0.28978 c 0.202827,0 0.293355,0.01274 0.301693,0.04246 0.01116,0.04001 0.03588,0.133281 0.125761,0.475529 0.02085,0.0794 0.04969,0.18257 0.06411,0.229274 0.01441,0.04671 0.05343,0.184267 0.08671,0.305697 0.106767,0.389508 0.113488,0.380404 0.338583,-0.458547 0.05013,-0.186815 0.11077,-0.39316 0.134778,-0.458546 l 0.04365,-0.118886 h 0.284002 0.284002 v 0.985026 0.985024 l -0.177657,0.01019 -0.177656,0.01019 -0.0092,-0.740521 c -0.0053,-0.425604 -0.02239,-0.737722 -0.04029,-0.733939 -0.03705,0.0079 -0.09661,0.188364 -0.154718,0.468948 -0.02321,0.112093 -0.05463,0.24201 -0.06981,0.288714 -0.01518,0.04671 -0.05316,0.199552 -0.08441,0.339665 -0.03124,0.14011 -0.06406,0.281495 -0.07295,0.314189 -0.0128,0.04711 -0.05351,0.05944 -0.196083,0.05944 H 49.37354 l -0.05646,-0.246263 c -0.03106,-0.13544 -0.07077,-0.299753 -0.08827,-0.365138 -0.01749,-0.06539 -0.05635,-0.225877 -0.08635,-0.356647 -0.09684,-0.42215 -0.120366,-0.494923 -0.153328,-0.47455 -0.01781,0.01104 -0.03244,0.145211 -0.03252,0.298231 -7.5e-5,0.153019 -0.01007,0.4731 -0.02222,0.711289 l -0.02209,0.433072 h -0.164589 -0.164591 z m 2.54748,0.956798 c 0,-0.02672 0.03625,-0.145951 0.08055,-0.264934 0.0443,-0.118983 0.114337,-0.315686 0.155621,-0.437116 0.101369,-0.298125 0.262926,-0.749152 0.416714,-1.163349 0.03405,-0.09171 0.03986,-0.09341 0.319276,-0.09341 0.156525,0 0.284659,0.0039 0.28474,0.0085 3.13e-4,0.01798 0.52999,1.526884 0.575303,1.638879 0.147113,0.363591 0.148932,0.356647 -0.09339,0.356647 h -0.197257 l -0.06785,-0.212292 -0.06785,-0.212289 -0.426227,-0.0095 c -0.480287,-0.01068 -0.470815,-0.01497 -0.543762,0.247234 l -0.04724,0.169831 -0.194311,0.01019 c -0.150649,0.0079 -0.194311,-7.28e-4 -0.194311,-0.03842 z m 1.24653,-0.695012 c 0.03,-0.01907 0.0022,-0.140012 -0.105821,-0.459115 -0.0806,-0.238275 -0.155226,-0.441911 -0.165837,-0.452524 -0.02837,-0.02839 -0.09175,0.01869 -0.09175,0.06817 0,0.02347 -0.05395,0.2091 -0.119868,0.412499 -0.06592,0.2034 -0.112263,0.389637 -0.10297,0.413861 0.01875,0.04889 0.513538,0.06332 0.586235,0.01712 z m 1.30095,-0.261786 v -1.002008 h 0.186815 0.186815 v 1.002008 1.002009 h -0.186815 -0.186815 z m -39.787813,-1.99703 c -0.04223,-0.03087 -0.0568,-0.07889 -0.04895,-0.16134 l 0.01116,-0.117382 20.157032,-0.0085 c 14.39927,-0.0061 20.163505,0.0019 20.179694,0.02814 0.0125,0.02016 0.01274,0.0851 6.07e-4,0.144291 -0.01723,0.0842 -0.04392,0.11231 -0.122538,0.129175 -0.05526,0.01189 -9.104219,0.02337 -20.108733,0.02557 -16.32183,0.0033 -20.019282,-0.004 -20.068321,-0.03994 z m 0.862105,-0.902674 c -0.241005,-0.07953 -0.443878,-0.251974 -0.564647,-0.479956 -0.09557,-0.180411 -0.08833,-0.778896 0.01177,-0.96984 0.175346,-0.334591 0.436385,-0.488839 0.829197,-0.48997 0.372738,-0.0011 0.592977,0.111341 0.737389,0.376369 0.08187,0.15026 0.06002,0.190797 -0.118207,0.219297 -0.134253,0.02147 -0.141809,0.01754 -0.236747,-0.12294 -0.130219,-0.19269 -0.326168,-0.270706 -0.513886,-0.204598 -0.288733,0.101684 -0.38264,0.280918 -0.381833,0.728791 7.27e-4,0.394861 0.07177,0.543169 0.316241,0.660011 0.1441,0.06887 0.178652,0.07344 0.288589,0.03816 0.158199,-0.05077 0.234301,-0.117649 0.316009,-0.277742 0.06348,-0.124377 0.169155,-0.169976 0.216477,-0.09341 0.01152,0.01868 0.05113,0.03397 0.08799,0.03397 0.207847,0 -0.01239,0.392529 -0.3046,0.542894 -0.09887,0.05088 -0.566806,0.07754 -0.683717,0.03895 z m 5.110535,-0.0134 c -0.0091,-0.02362 -0.0124,-0.463056 -0.0074,-0.976534 l 0.0091,-0.933593 0.178323,-0.01031 c 0.09808,-0.0057 0.178624,0.0019 0.17899,0.01698 0.0013,0.05448 0.0019,1.862621 6.67e-4,1.903893 -0.0018,0.05845 -0.337168,0.058 -0.359609,-4.83e-4 z m 4.468208,-0.942085 v -0.985026 h 0.595766 c 0.522844,0 0.611593,0.0081 0.725088,0.06597 0.211835,0.108065 0.301342,0.321314 0.255418,0.608508 -0.02406,0.150421 -0.217485,0.378475 -0.321017,0.378475 -0.03195,0 -0.07597,0.02151 -0.09778,0.04778 -0.03182,0.03835 -0.0075,0.0803 0.123216,0.21229 0.148396,0.149871 0.417627,0.55585 0.417627,0.629751 0,0.01678 -0.09553,0.02595 -0.212291,0.02038 l -0.212289,-0.01007 -0.178068,-0.27173 c -0.249212,-0.380298 -0.410594,-0.52648 -0.581227,-0.52648 -0.09044,0 -0.140201,0.01735 -0.154164,0.05373 -0.0114,0.02955 -0.02062,0.212968 -0.02062,0.407597 v 0.353868 H 24.501 24.331167 Z m 1.122125,-0.203798 c 0.03978,-0.05181 0.06548,-0.140015 0.06595,-0.226254 6.06e-4,-0.116617 -0.01753,-0.156721 -0.103747,-0.229273 -0.09513,-0.08005 -0.131354,-0.08794 -0.403963,-0.08794 -0.345907,0 -0.340691,-0.0049 -0.340691,0.322681 0,0.33854 -0.0096,0.330564 0.380418,0.317222 0.312625,-0.01068 0.341544,-0.01764 0.402043,-0.09644 z m 4.565619,1.145883 c -0.0091,-0.02362 -0.0124,-0.463056 -0.0074,-0.976534 l 0.0091,-0.933593 0.721787,-0.0092 0.721785,-0.0092 v 0.118692 0.118692 l -0.534971,0.0093 -0.53497,0.0093 v 0.237765 0.237765 l 0.501004,0.0095 0.501004,0.0095 v 0.117067 0.117066 l -0.501004,0.0095 -0.501004,0.0095 -0.0097,0.348156 c -0.0074,0.265178 7.28e-4,0.348629 0.03397,0.350143 0.02401,0.0011 0.272918,0.0049 0.553141,0.0085 l 0.509496,0.0066 0.01055,0.127373 0.01056,0.127374 h -0.733402 c -0.559773,0 -0.737295,-0.01019 -0.749873,-0.04293 z m 5.537745,-0.03348 c -0.01031,-0.04204 -0.01439,-0.481474 -0.0091,-0.976534 l 0.0096,-0.90011 0.190794,-0.01007 0.190794,-0.01007 0.17234,0.281784 c 0.09478,0.15498 0.26659,0.438453 0.381784,0.629938 0.115198,0.191486 0.223091,0.348156 0.23977,0.348156 0.01669,0 0.03032,-0.283143 0.03032,-0.630153 v -0.630154 l 0.178323,0.01031 0.178325,0.01031 v 0.968042 0.968042 h -0.202304 -0.202226 l -0.35822,-0.600897 c -0.197021,-0.330494 -0.377327,-0.6018 -0.400679,-0.602904 -0.03246,-0.0015 -0.04246,0.141848 -0.04246,0.609389 v 0.611395 h -0.169184 c -0.147271,0 -0.171605,-0.0099 -0.187866,-0.07643 z m 5.689775,-0.905679 v -0.987948 h 0.544816 c 0.47511,0 0.561604,0.0086 0.676042,0.06695 0.314741,0.160569 0.463046,0.501336 0.43456,0.998502 -0.02551,0.445161 -0.13743,0.666558 -0.410365,0.811752 -0.125523,0.06677 -0.202239,0.07639 -0.693099,0.0869 l -0.551954,0.01177 z m 0.947346,0.694205 c 0.206633,-0.04538 0.343377,-0.331205 0.343377,-0.717724 0,-0.366459 -0.14174,-0.609032 -0.401312,-0.686801 -0.172504,-0.05169 -0.456908,-0.05118 -0.508987,9.1e-4 -0.02896,0.02896 -0.04076,0.235125 -0.04076,0.711606 0,0.559046 0.0085,0.675569 0.05061,0.699175 0.05702,0.03192 0.39922,0.02751 0.557061,-0.0072 z m 4.75901,-0.697121 v -0.986364 l 0.721787,0.0092 0.721785,0.0092 v 0.101902 0.101903 l -0.525045,0.0095 c -0.367867,0.0066 -0.532944,0.02185 -0.551433,0.05095 -0.03421,0.05385 -0.03424,0.368847 -3.3e-5,0.422683 0.01828,0.02878 0.176787,0.04439 0.517467,0.05095 l 0.49111,0.0095 v 0.101903 0.101902 l -0.473251,0.0095 c -0.278112,0.0056 -0.4917,0.0248 -0.517988,0.04661 -0.0522,0.04332 -0.06252,0.559495 -0.01276,0.638142 0.025,0.03952 0.127384,0.04747 0.53445,0.04147 0.276935,-0.004 0.523847,0.0062 0.548695,0.02273 0.02546,0.017 0.04029,0.07303 0.03397,0.128369 l -0.01116,0.09821 -0.738769,0.0091 -0.738769,0.0091 z m 6.063001,0.970557 c -0.01868,-0.0074 -0.07483,-0.02253 -0.124755,-0.03349 -0.04993,-0.01092 -0.138373,-0.05998 -0.196527,-0.108914 -0.196986,-0.165752 -0.207142,-0.214955 -0.207789,-1.006713 -3.24e-4,-0.396846 1.27e-4,-0.74148 9.71e-4,-0.765856 0.0012,-0.03153 0.04819,-0.04133 0.16293,-0.03397 l 0.161341,0.01031 0.01698,0.736081 c 0.01641,0.71177 0.01958,0.73885 0.09581,0.819944 0.117394,0.124884 0.329378,0.174151 0.497096,0.115526 0.251666,-0.08796 0.262966,-0.127195 0.258568,-0.897764 -0.0024,-0.373588 0.0061,-0.704344 0.01753,-0.735013 0.01583,-0.04118 0.06482,-0.05575 0.187591,-0.05575 h 0.166198 v 0.731369 c 0,0.885726 -0.03445,1.010379 -0.319682,1.157379 -0.09717,0.05008 -0.632963,0.100058 -0.716291,0.06683 z m -39.57934,-3.098955 c -0.03255,-0.01313 -0.04246,-0.238559 -0.04246,-0.96536 v -0.948229 h 20.362852 20.362852 v 0.968043 0.968042 l -20.320394,-0.0027 c -11.176217,-0.0015 -20.3395,-0.01043 -20.362852,-0.01982 z m 40.234104,-0.954037 -0.0095,-0.501005 -19.86832,-0.0085 c -15.872269,-0.0068 -19.873744,2.4e-5 -19.895295,0.03397 -0.03259,0.05132 -0.03749,0.921803 -0.0053,0.953919 0.01246,0.01245 8.969801,0.02264 19.905215,0.02264 H 53.679929 Z M 13.58947,47.323811 c -0.0108,-0.0108 0.01922,-0.129263 0.0667,-0.263239 0.04749,-0.133977 0.146224,-0.411728 0.219408,-0.617225 0.07319,-0.205497 0.163992,-0.465339 0.201797,-0.577428 0.03781,-0.112093 0.08197,-0.234368 0.09814,-0.271731 0.01617,-0.03737 0.03904,-0.102327 0.05082,-0.144358 0.02003,-0.07149 0.03983,-0.07643 0.306638,-0.07643 0.330552,0 0.297237,-0.03231 0.455339,0.441563 0.05921,0.177475 0.1209,0.353251 0.13708,0.390614 0.02797,0.06461 0.170987,0.461239 0.244935,0.679328 0.03612,0.106488 0.06164,0.174272 0.125366,0.33277 0.02101,0.05226 0.0382,0.102654 0.0382,0.112007 0,0.0093 -0.0937,0.01245 -0.208229,0.0069 l -0.208228,-0.01007 -0.07207,-0.203798 -0.07207,-0.203799 -0.373558,-0.0098 c -0.205457,-0.0055 -0.405426,-0.0019 -0.444375,0.0078 -0.05193,0.01291 -0.08733,0.07216 -0.132752,0.222169 l -0.06193,0.204559 h -0.175775 c -0.09667,0 -0.184617,-0.0089 -0.195422,-0.01965 z m 1.265081,-0.723294 c 0,-0.03171 -0.206108,-0.66757 -0.27077,-0.835347 -0.04998,-0.129688 -0.07025,-0.09815 -0.20669,0.32153 -0.0577,0.177475 -0.120876,0.355615 -0.140408,0.395866 -0.01953,0.04025 -0.02516,0.08993 -0.01251,0.110394 0.02751,0.04452 0.63038,0.05175 0.63038,0.0075 z m 5.78992,0.700719 c -0.0092,-0.02402 -0.01269,-0.463777 -0.0078,-0.977253 l 0.0091,-0.933594 0.149482,-0.01068 c 0.09632,-0.0069 0.159857,0.0052 0.178653,0.03397 0.01604,0.02457 0.02749,0.401056 0.02545,0.836651 -0.0021,0.435594 0.0051,0.800889 0.01606,0.811768 0.01092,0.01092 0.223784,0.01661 0.473123,0.01274 0.49056,-0.0076 0.549877,0.01189 0.526988,0.173363 l -0.01104,0.07829 -0.671626,0.0092 c -0.522576,0.0072 -0.675344,-4.77e-4 -0.688381,-0.03445 z m 12.254203,-0.93252 0.009,-0.978327 h 0.662345 0.662345 l 0.01067,0.110394 0.01068,0.110394 h -0.458272 c -0.547343,0 -0.565024,0.0095 -0.565024,0.301332 0,0.107021 0.01834,0.21292 0.04076,0.235338 0.0271,0.02709 0.175116,0.04076 0.441564,0.04076 h 0.400803 v 0.135865 0.135866 h -0.421881 -0.421882 l -0.02294,0.104475 c -0.01262,0.05746 -0.01765,0.252343 -0.01116,0.433071 l 0.01177,0.328598 -0.178848,0.01031 -0.178847,0.01031 z m 6.18263,0.90014 c 0.0096,-0.04303 0.101489,-0.315164 0.204338,-0.604728 0.102849,-0.289562 0.246343,-0.694612 0.318865,-0.900109 l 0.131858,-0.37363 0.291399,-0.0097 0.2914,-0.0097 0.05806,0.162588 c 0.03193,0.08942 0.07243,0.189129 0.09001,0.221569 0.01758,0.03244 0.03194,0.07756 0.03194,0.100253 0,0.03767 0.269775,0.801757 0.339535,0.961662 0.04177,0.09573 0.169961,0.47533 0.169961,0.503264 0,0.01276 -0.09047,0.02321 -0.201069,0.02321 h -0.201068 l -0.05818,-0.178323 c -0.03199,-0.09808 -0.07331,-0.19743 -0.09181,-0.220781 -0.02351,-0.02968 -0.15466,-0.04246 -0.435874,-0.04246 -0.450527,0 -0.435282,-0.0084 -0.519664,0.284135 l -0.04052,0.140445 -0.198263,0.01031 c -0.191493,0.0099 -0.197672,0.0076 -0.180933,-0.06794 z m 1.248043,-0.700186 c 0,-0.0824 -0.258277,-0.821766 -0.302509,-0.865998 -0.02393,-0.02393 -0.03977,-0.01976 -0.05027,0.01321 -0.171171,0.537007 -0.258615,0.83046 -0.258615,0.867878 0,0.03579 0.06992,0.0464 0.305697,0.0464 0.272382,0 0.305698,-0.0067 0.305698,-0.06149 z m 6.102628,0.752143 c -0.01246,-0.01246 -0.02264,-0.392942 -0.02264,-0.845527 0,-0.940993 0.03046,-0.864116 -0.342441,-0.864116 h -0.234987 v -0.119517 -0.119517 l 0.772735,0.0091 0.772735,0.0091 0.01068,0.110394 0.01067,0.110395 h -0.254193 c -0.139766,0 -0.278299,0.0092 -0.307849,0.02062 -0.047,0.01804 -0.05373,0.126468 -0.05373,0.866143 v 0.845526 h -0.164171 c -0.09029,0 -0.174361,-0.01019 -0.186815,-0.02264 z m 6.023374,-0.962382 v -0.985026 h 0.169831 0.169833 v 0.386981 c 0,0.32154 0.0091,0.390465 0.05373,0.407596 0.101781,0.03906 0.745889,0.02261 0.788639,-0.02014 0.02669,-0.02668 0.04076,-0.167568 0.04076,-0.407598 v -0.366835 h 0.169831 0.169832 v 0.985026 0.985026 h -0.168819 -0.168818 l -0.0095,-0.433072 -0.0096,-0.433071 h -0.424581 -0.42458 l -0.0095,0.433071 -0.0095,0.433072 H 52.62422 52.455403 Z m -25.359207,0.428246 c -0.01043,-0.02732 -0.01402,-0.08517 -0.0079,-0.128569 0.01092,-0.07683 0.02051,-0.07889 0.367825,-0.07889 h 0.356647 v 0.118886 0.118886 l -0.348763,0.0097 c -0.281075,0.0078 -0.352462,4.5e-5 -0.367825,-0.03998 z M 13.767626,43.793941 v -0.152878 l 20.150563,0.0085 20.150564,0.0085 0.01031,0.08914 c 0.0055,0.04931 -0.01432,0.113803 -0.04489,0.144357 -0.05083,0.05085 -1.643449,0.05522 -20.160898,0.05522 h -20.10565 z m 0.288715,-0.795478 c -0.07473,-0.01465 -0.175434,-0.04287 -0.223793,-0.06271 -0.107253,-0.04398 -0.261312,-0.221336 -0.289376,-0.333154 -0.03562,-0.141943 0.0042,-0.184274 0.17328,-0.184274 0.129095,0 0.15965,0.01268 0.184277,0.07643 0.01623,0.04203 0.07029,0.114361 0.120123,0.160721 0.07656,0.07123 0.124087,0.08438 0.306695,0.08492 0.261766,7.28e-4 0.402088,-0.08168 0.418539,-0.245882 0.01339,-0.133672 -0.07338,-0.216052 -0.288358,-0.273743 -0.357871,-0.09604 -0.440133,-0.122653 -0.558449,-0.180662 -0.210402,-0.103164 -0.301479,-0.242683 -0.301479,-0.461841 0,-0.225727 0.100143,-0.384305 0.299234,-0.473844 0.166499,-0.07489 0.653093,-0.07364 0.828122,0.0022 0.150587,0.06518 0.300007,0.250198 0.309399,0.383116 0.0064,0.0902 -0.0024,0.09717 -0.134515,0.106792 -0.144216,0.01055 -0.153916,0.0047 -0.28509,-0.170374 -0.154741,-0.206541 -0.677485,-0.134192 -0.677485,0.09376 0,0.08594 0.150166,0.199118 0.327051,0.24649 0.389335,0.104268 0.444076,0.123004 0.576731,0.197364 0.201526,0.112966 0.266211,0.227351 0.266706,0.471618 4.79e-4,0.236863 -0.07718,0.370303 -0.282765,0.485847 -0.14204,0.07984 -0.547947,0.120645 -0.768841,0.0773 z m 2.315375,0.0086 c -0.01245,-0.01245 -0.02264,-0.45408 -0.02264,-0.981391 0,-1.090662 -0.02913,-0.999981 0.321299,-0.999981 0.224588,0 0.263371,0.02174 0.303015,0.169831 0.01249,0.04671 0.04661,0.168983 0.07578,0.271731 0.08253,0.290647 0.105457,0.374397 0.167327,0.611396 0.0317,0.12143 0.06972,0.233887 0.08447,0.249902 0.03314,0.03596 0.088,-0.0626 0.131938,-0.23701 0.01826,-0.07247 0.048,-0.185272 0.06609,-0.250657 0.01809,-0.06539 0.07146,-0.262577 0.118619,-0.438204 0.04715,-0.175627 0.105821,-0.332396 0.130373,-0.348375 0.02455,-0.01598 0.159287,-0.02514 0.299398,-0.02034 l 0.254748,0.0087 v 0.985026 0.985024 H 18.132301 17.96247 l -0.0091,-0.738769 c -0.01152,-0.927557 -0.03455,-0.950382 -0.214491,-0.212289 -0.05465,0.224178 -0.114579,0.454537 -0.133168,0.511908 -0.0186,0.05737 -0.0338,0.138375 -0.0338,0.18001 0,0.04163 -0.02374,0.121599 -0.05275,0.1777 -0.04843,0.09365 -0.0654,0.101162 -0.207407,0.09172 -0.183296,-0.01218 -0.169331,0.01928 -0.366479,-0.825473 -0.06976,-0.298904 -0.134109,-0.566389 -0.143,-0.594413 -0.04217,-0.132898 -0.0725,0.09501 -0.09478,0.712226 -0.01313,0.363701 -0.03126,0.673219 -0.04028,0.687819 -0.01998,0.03232 -0.263811,0.03553 -0.295448,0.0039 z m 3.081107,-0.02693 c -0.0236,-0.06148 -0.02378,-0.06081 0.139771,-0.510863 0.06789,-0.186815 0.152056,-0.423731 0.187042,-0.52648 0.219576,-0.644894 0.30342,-0.860783 0.344373,-0.886729 0.05634,-0.0357 0.473346,-0.03917 0.524605,-0.0044 0.02022,0.01372 0.06534,0.109023 0.100265,0.21177 0.03492,0.102751 0.0757,0.201335 0.09061,0.219083 0.01492,0.01775 0.02711,0.06652 0.02711,0.108392 0,0.04187 0.01345,0.08443 0.0299,0.0946 0.01645,0.01019 0.03753,0.0531 0.04685,0.09541 0.0093,0.0423 0.07321,0.229775 0.141982,0.41659 0.06877,0.186815 0.147527,0.408445 0.175004,0.492512 0.02748,0.08407 0.06528,0.180219 0.08401,0.213672 0.05239,0.09358 0.0087,0.125993 -0.169898,0.125993 -0.181528,0 -0.210751,-0.02333 -0.276601,-0.220782 -0.08185,-0.245426 -0.100349,-0.254748 -0.505553,-0.254748 -0.237086,0 -0.381124,0.01464 -0.417693,0.04246 -0.03069,0.02335 -0.08329,0.126523 -0.116885,0.229273 l -0.06107,0.186814 -0.161686,0.01031 c -0.122295,0.0079 -0.166674,-0.0027 -0.182153,-0.04297 z M 20.682097,42.2717 c 0.0095,-0.0246 -0.02693,-0.173623 -0.08082,-0.331171 -0.05389,-0.15755 -0.11817,-0.351827 -0.142849,-0.431728 -0.02467,-0.0799 -0.06138,-0.139942 -0.08158,-0.133426 -0.04565,0.01473 -0.329168,0.840308 -0.30859,0.898588 0.02169,0.06142 0.59021,0.05933 0.613845,-0.0022 z m 4.061799,0.735125 c -0.255614,-0.03569 -0.546159,-0.297831 -0.548028,-0.494451 -5.23e-4,-0.05503 0.02339,-0.0657 0.247055,-0.11026 0.04104,-0.0081 0.08863,0.03198 0.146422,0.123523 0.142622,0.225929 0.459445,0.301938 0.68509,0.164363 0.256873,-0.156616 0.211536,-0.36051 -0.100968,-0.454089 -0.09897,-0.02964 -0.264014,-0.07719 -0.366763,-0.105675 -0.371544,-0.102995 -0.543208,-0.280308 -0.543208,-0.561082 0,-0.199565 0.09447,-0.350924 0.278636,-0.446474 0.190683,-0.09893 0.65908,-0.109206 0.849898,-0.01866 0.166421,0.07897 0.336824,0.287612 0.324406,0.397202 -0.0084,0.07361 -0.02863,0.08629 -0.152436,0.09528 -0.130887,0.0095 -0.149326,3.45e-4 -0.220782,-0.109655 -0.114907,-0.176891 -0.32935,-0.234425 -0.566128,-0.151884 -0.125076,0.0436 -0.18737,0.139137 -0.155729,0.238828 0.02225,0.07011 0.335035,0.233129 0.447291,0.233129 0.114421,0 0.471287,0.146535 0.560953,0.230337 0.119504,0.11168 0.174459,0.282087 0.15284,0.473883 -0.03428,0.30416 -0.259286,0.470691 -0.670043,0.495919 -0.140111,0.0086 -0.305939,0.0085 -0.368506,-2.37e-4 z m 2.286709,-0.01815 c -0.0095,-0.02464 -0.01311,-0.472561 -0.0081,-0.995392 l 0.0091,-0.950601 h 0.271274 c 0.266895,0 0.272047,0.0016 0.319297,0.100204 0.02641,0.05511 0.05995,0.146819 0.07454,0.203799 0.01458,0.05698 0.0593,0.225877 0.09937,0.375329 0.04007,0.149452 0.088,0.335666 0.106512,0.413808 0.01851,0.07815 0.05538,0.160111 0.08193,0.18215 0.05441,0.04515 0.05204,0.04966 0.116945,-0.222328 0.02229,-0.09341 0.05279,-0.208044 0.06778,-0.254748 0.01498,-0.0467 0.07018,-0.237764 0.122641,-0.424579 0.05247,-0.186816 0.111341,-0.350894 0.130846,-0.364619 0.05886,-0.04143 0.476811,-0.02959 0.521173,0.01476 0.02974,0.02974 0.04076,0.295076 0.04076,0.981391 0,1.028045 0.0093,0.981867 -0.199784,0.981867 -0.166086,0 -0.173846,-0.03278 -0.173846,-0.734294 0,-0.359025 -0.0093,-0.676951 -0.02062,-0.706501 -0.031,-0.08075 -0.08128,-0.06459 -0.08128,0.02612 0,0.04391 -0.01348,0.124162 -0.02996,0.178325 -0.01649,0.05416 -0.08862,0.343033 -0.160297,0.641938 -0.07168,0.298904 -0.146087,0.555093 -0.165343,0.569308 -0.01925,0.01422 -0.09567,0.02186 -0.169794,0.01698 -0.163185,-0.01068 -0.187043,-0.05134 -0.284599,-0.484392 -0.197103,-0.874943 -0.23212,-0.992472 -0.281105,-0.943487 -0.01558,0.01559 -0.03248,0.341239 -0.03755,0.723676 l -0.0092,0.69534 -0.161686,0.01031 c -0.110346,0.007 -0.167145,-0.0039 -0.178875,-0.03442 z m 3.268931,0.01999 c -0.01333,-0.01333 -0.02425,-0.455678 -0.02425,-0.982989 0,-0.842919 0.0064,-0.961239 0.05373,-0.979365 0.07079,-0.02716 0.661933,-0.02643 0.925791,0.0012 0.289216,0.03023 0.451821,0.167717 0.510975,0.432046 0.06758,0.301982 -0.01429,0.52998 -0.24709,0.688178 -0.103298,0.07019 -0.176341,0.08548 -0.496118,0.10377 -0.433886,0.02482 -0.402458,-0.0093 -0.416087,0.452563 l -0.0085,0.288714 -0.137098,0.01007 c -0.07541,0.0055 -0.148007,-8.49e-4 -0.16134,-0.01416 z m 0.98849,-1.112111 c 0.130206,-0.130206 0.129118,-0.355844 -0.0024,-0.487312 -0.08241,-0.08241 -0.124288,-0.09508 -0.352222,-0.106585 -0.192865,-0.0097 -0.266171,-0.0012 -0.288075,0.03331 -0.03432,0.05416 -0.04074,0.540423 -0.0083,0.625089 0.01902,0.04959 0.06031,0.05559 0.290946,0.04223 0.235334,-0.01362 0.280113,-0.02691 0.359946,-0.106731 z m 3.997312,1.111226 c -0.290649,-0.04458 -0.581585,-0.303347 -0.554673,-0.493343 0.0098,-0.06935 0.03221,-0.08025 0.181042,-0.08815 0.16213,-0.0086 0.172142,-0.004 0.220781,0.101902 0.152327,0.331594 0.823685,0.282209 0.823685,-0.06059 0,-0.111971 -0.09236,-0.189846 -0.290741,-0.245171 -0.07828,-0.02182 -0.226396,-0.06316 -0.329145,-0.09183 -0.371978,-0.103819 -0.543209,-0.280796 -0.543209,-0.561436 0,-0.338119 0.244437,-0.521001 0.698098,-0.522299 0.404338,-0.0012 0.647007,0.12332 0.729867,0.374389 0.04832,0.14641 0.02222,0.181877 -0.133816,0.181877 -0.108466,0 -0.144786,-0.02066 -0.236188,-0.134407 -0.07472,-0.09297 -0.144528,-0.141257 -0.226467,-0.156629 -0.261844,-0.04912 -0.519677,0.078 -0.47322,0.233332 0.0311,0.103965 0.127936,0.172634 0.314335,0.222879 0.566713,0.152762 0.686916,0.215093 0.795029,0.412253 0.04946,0.09018 0.06113,0.161876 0.04838,0.296974 -0.03195,0.338621 -0.240219,0.503285 -0.67059,0.530181 -0.138202,0.0086 -0.297132,0.0086 -0.353176,7.4e-5 z m 2.309676,-0.01687 c -0.0099,-0.02586 -0.01398,-0.474803 -0.009,-0.997633 l 0.0091,-0.950601 0.526479,0.004 c 0.59544,0.0045 0.702187,0.03289 0.878273,0.233436 0.184875,0.210561 0.221487,0.333438 0.222751,0.747598 9.71e-4,0.323121 -0.0095,0.395214 -0.07736,0.533289 -0.09548,0.194201 -0.217171,0.320429 -0.376983,0.391066 -0.16992,0.07511 -1.14687,0.107459 -1.173197,0.03886 z m 0.987556,-0.282733 c 0.182309,-0.07617 0.267021,-0.291334 0.267916,-0.680475 5.5e-4,-0.238829 -0.01408,-0.334938 -0.06692,-0.439371 -0.113148,-0.223676 -0.211396,-0.272192 -0.553058,-0.27312 l -0.295792,-7.89e-4 -0.0092,0.67837 c -0.0051,0.373104 -0.0017,0.697906 0.0074,0.721785 0.02378,0.06197 0.497212,0.05732 0.649664,-0.0064 z m 4.235435,0.293917 c -0.03085,-0.01959 -0.04423,-0.244654 -0.05095,-0.857131 l -0.0091,-0.830555 -0.262806,-0.0099 c -0.220166,-0.0082 -0.26858,-0.02071 -0.298401,-0.07643 -0.02498,-0.04667 -0.02465,-0.08697 0.0011,-0.135103 0.03534,-0.06603 0.06428,-0.06825 0.77393,-0.05944 l 0.737223,0.0091 v 0.118886 0.118886 l -0.271731,0.01698 -0.271732,0.01698 -0.0091,0.81247 c -0.0059,0.529724 -0.02218,0.828194 -0.04661,0.857651 -0.04081,0.04918 -0.224616,0.06024 -0.2918,0.01757 z m 2.044958,-0.01343 c -0.0095,-0.02464 -0.01313,-0.472561 -0.0081,-0.995391 l 0.0091,-0.950601 h 0.169831 0.169832 l 0.0096,0.416089 c 0.0052,0.228848 0.02356,0.416088 0.04071,0.416088 0.01715,0 0.165705,-0.140977 0.330127,-0.313282 0.164422,-0.172306 0.347096,-0.363367 0.405943,-0.42458 0.09732,-0.101223 0.125233,-0.111292 0.308528,-0.111292 0.110843,0 0.211461,0.0099 0.223594,0.02207 0.01213,0.01213 -0.130525,0.18048 -0.31702,0.374104 -0.186493,0.193625 -0.33908,0.369516 -0.33908,0.390868 0,0.03214 0.284623,0.478668 0.665766,1.044497 0.04307,0.06392 0.07047,0.128886 0.06091,0.144358 -0.0295,0.04774 -0.411602,0.03266 -0.462506,-0.01826 -0.02551,-0.02551 -0.152704,-0.231843 -0.282649,-0.458512 -0.129946,-0.22667 -0.252124,-0.412142 -0.271508,-0.412162 -0.01939,-1.9e-5 -0.106646,0.07257 -0.193918,0.161306 l -0.158674,0.16134 -0.0098,0.288714 -0.0098,0.288715 -0.161687,0.01031 c -0.110334,0.007 -0.167144,-0.0039 -0.178874,-0.03442 z m 4.720608,-0.0019 c -0.0091,-0.0236 -0.0124,-0.470686 -0.0074,-0.993516 l 0.0091,-0.950601 0.149483,-0.01067 c 0.0966,-0.0069 0.159502,0.0051 0.177804,0.03397 0.01558,0.02457 0.02856,0.216617 0.02885,0.426783 2.86e-4,0.210167 0.01302,0.382123 0.02829,0.382123 0.01527,0 0.1643,-0.148961 0.331171,-0.331024 0.512312,-0.558946 0.458014,-0.518137 0.689401,-0.518137 0.112772,0 0.214821,0.01685 0.227638,0.03759 0.01328,0.0215 -0.116666,0.178018 -0.303692,0.365747 -0.179809,0.180486 -0.326926,0.356329 -0.326926,0.390764 0,0.05435 0.302803,0.543573 0.617414,0.997547 0.05499,0.07935 0.09052,0.159599 0.07895,0.178325 -0.01152,0.01873 -0.109484,0.03405 -0.217571,0.03405 -0.235472,0 -0.220662,0.01457 -0.52658,-0.517988 -0.126092,-0.219509 -0.24659,-0.399105 -0.267772,-0.399105 -0.02118,0 -0.104049,0.06432 -0.184155,0.142937 l -0.145647,0.142938 v 0.261881 c 0,0.144034 -0.0092,0.286058 -0.02061,0.315609 -0.02575,0.0671 -0.312523,0.07628 -0.337647,0.0108 z m 2.925185,0.01292 c -0.03793,-0.06138 -0.02891,-1.910214 0.0096,-1.948643 0.02041,-0.02041 0.250416,-0.02825 0.588969,-0.02008 0.639926,0.01544 0.73432,0.04743 0.871566,0.295311 0.09852,0.17793 0.08076,0.316824 -0.06377,0.49869 -0.05556,0.06992 -0.101041,0.139921 -0.101041,0.155555 0,0.01563 0.04355,0.05096 0.09686,0.07851 0.144113,0.07452 0.208845,0.196552 0.208845,0.393713 0,0.209874 -0.06272,0.339797 -0.223081,0.462111 -0.119638,0.09125 -0.129495,0.09269 -0.742576,0.108052 -0.44406,0.01116 -0.628162,0.0045 -0.645293,-0.02322 z m 1.138031,-0.341027 c 0.110794,-0.110807 0.126195,-0.225682 0.04998,-0.373053 -0.06456,-0.124845 -0.261895,-0.179925 -0.596062,-0.166371 l -0.254748,0.01031 -0.01007,0.268729 c -0.0055,0.1478 -0.0022,0.289185 0.0074,0.314189 0.01298,0.03382 0.10536,0.04547 0.360788,0.04547 0.334194,0 0.345986,-0.0027 0.442629,-0.09928 z m -0.137799,-0.835141 c 0.176958,-0.09151 0.223482,-0.285166 0.100277,-0.417412 -0.09117,-0.09785 -0.168163,-0.113803 -0.491685,-0.101806 l -0.271617,0.01007 -0.01007,0.23233 c -0.0062,0.142044 0.0053,0.250943 0.02964,0.280223 0.05585,0.06729 0.511456,0.06488 0.643505,-0.0034 z m -31.061429,0.599549 c -0.04819,-0.151841 8.49e-4,-0.174617 0.375746,-0.174617 h 0.353013 v 0.118886 0.118886 h -0.354359 c -0.315575,0 -0.356551,-0.0069 -0.3744,-0.06314 z m 10.495615,0 c -0.04819,-0.151841 8.49e-4,-0.174617 0.375746,-0.174617 h 0.353014 v 0.118886 0.118886 h -0.354359 c -0.315577,0 -0.356552,-0.0069 -0.374401,-0.06314 z m 7.467608,0.01537 c -0.01055,-0.02759 -0.01393,-0.0778 -0.0074,-0.111583 0.01055,-0.0546 0.05141,-0.06142 0.368012,-0.06142 h 0.356183 v 0.101902 0.101902 l -0.348763,0.0097 c -0.282557,0.0079 -0.352418,1.64e-4 -0.368012,-0.04048 z m 7.289272,-0.07111 v -0.118886 h 0.354358 c 0.315576,0 0.356552,0.0069 0.3744,0.06314 0.0482,0.15184 -8.49e-4,0.174617 -0.375745,0.174617 h -0.353013 z m -34.293436,-3.53162 c -0.02525,-0.06581 0.01928,-13.089043 0.04918,-14.385652 l 0.02312,-1.002009 1.786145,-0.0087 1.786146,-0.0087 0.02256,-2.501842 c 0.01241,-1.376013 0.02279,-3.611292 0.02309,-4.967287 2.86e-4,-1.355995 0.01177,-2.482491 0.02548,-2.503324 0.01615,-0.02451 0.300709,-0.04849 0.806181,-0.06794 l 0.781229,-0.03005 0.0099,-0.226487 0.0099,-0.226489 -0.207406,-0.110539 C 18.20659,12.628292 17.89326,12.272462 17.681923,11.8422 c -0.09462,-0.192649 -0.18746,-0.41141 -0.206298,-0.486136 -0.01884,-0.07473 -0.05074,-0.198779 -0.07091,-0.275673 -0.04843,-0.184711 -0.0469,-0.818885 0.0024,-1.023056 0.167718,-0.6935974 0.469764,-1.2038212 0.922222,-1.5578452 0.217585,-0.170248 0.284561,-0.209024 0.543257,-0.31451 0.142508,-0.05811 0.311017,-0.04762 0.375261,0.02338 0.03092,0.03416 0.05622,0.07462 0.05622,0.0899 0,0.01529 -0.09371,0.151648 -0.208246,0.303024 -0.411721,0.5441518 -0.58812,1.1355425 -0.501328,1.6807362 0.04263,0.267797 0.13236,0.52269 0.198358,0.563479 0.04786,0.02958 0.647081,-0.513342 0.647081,-0.586272 0,-0.02943 -0.02852,-0.138589 -0.06339,-0.242581 -0.03485,-0.1039887 -0.0827,-0.2578577 -0.106294,-0.3419247 -0.02361,-0.08407 -0.06607,-0.2181497 -0.09437,-0.2979637 -0.0283,-0.07981 -0.0406,-0.155965 -0.02734,-0.169227 0.01326,-0.01326 0.225636,0.07885 0.471942,0.204689 0.246305,0.1258407 0.475487,0.2287417 0.509293,0.2286677 0.0338,-7.3e-5 0.186655,-0.104462 0.339664,-0.2319877 0.404497,-0.337115 0.574362,-0.45361 0.609779,-0.418193 0.01829,0.01829 0.01639,0.255386 -0.0047,0.5866327 l -0.03541,0.5559277 0.09837,0.08492 c 0.09877,0.08527 0.884945,0.593523 0.96176,0.621778 0.116363,0.0428 -0.07238,0.09546 -0.453463,0.126526 -0.423322,0.0345 -0.697791,0.07601 -0.732569,0.110795 -0.01019,0.01019 -0.03238,0.161179 -0.04925,0.335488 -0.05076,0.5241 -0.07196,0.643011 -0.112372,0.630388 -0.02085,-0.0066 -0.179501,-0.209624 -0.352571,-0.451365 -0.173071,-0.24174 -0.337233,-0.466277 -0.364806,-0.49897 -0.04361,-0.0517 -0.115344,-0.05937 -0.55147,-0.05892 -0.275736,2.85e-4 -0.52133,0.0132 -0.545765,0.02869 -0.08926,0.05662 0.0032,0.204965 0.313212,0.502655 0.313592,0.301107 0.566446,0.46527 0.88128,0.572159 0.132222,0.0449 0.255403,0.05266 0.628099,0.03962 0.254991,-0.009 0.547686,-0.0333 0.650434,-0.05419 0.102751,-0.02088 0.266821,-0.04714 0.364608,-0.05838 0.150841,-0.01732 0.181325,-0.01116 0.201095,0.04031 0.04024,0.104887 -0.148042,0.409637 -0.35407,0.573079 -0.207502,0.164612 -0.623985,0.393507 -0.715998,0.393507 -0.0327,0 -0.074,0.0132 -0.09175,0.02932 -0.07136,0.06484 -0.658134,0.116448 -1.008473,0.08868 -0.60115,-0.04765 -0.584639,-0.04979 -0.596892,0.0773 l -0.01067,0.110394 h 0.796201 c 0.622715,0 0.804408,0.0098 0.833852,0.04537 0.02541,0.03062 0.04055,0.403032 0.04661,1.146366 l 0.009,1.101003 h 4.347699 4.347698 l 0.186815,-0.09777 c 0.102751,-0.05377 0.225027,-0.12399 0.271731,-0.156044 0.04671,-0.03205 0.184268,-0.111826 0.305697,-0.17728 1.038312,-0.559639 1.685715,-1.001315 2.156289,-1.471082 0.396486,-0.395805 0.427641,-0.433647 0.800281,-0.97206 0.302062,-0.436439 0.463973,-0.641291 0.50686,-0.641291 0.01104,0 0.06901,0.103176 0.128796,0.229272 0.339041,0.715228 1.567509,1.907511 2.779625,2.697752 0.715714,0.46661 1.256165,0.758765 1.620678,0.876099 0.09922,0.03193 0.126882,0.05722 0.118886,0.108671 -0.01031,0.06653 -0.0768,0.0671 -8.58694,0.07315 -8.06833,0.0058 -8.583942,0.0096 -8.701861,0.06516 -0.06894,0.03248 -0.168293,0.115344 -0.220783,0.184156 -0.0935,0.122571 -0.09544,0.134223 -0.09544,0.57496 0,0.24742 0.0076,0.457315 0.01698,0.466431 0.0093,0.0091 1.056355,0.02163 2.326697,0.02779 2.619536,0.01271 2.389223,0.03644 2.763798,-0.284662 0.118971,-0.101987 0.302393,-0.229745 0.407596,-0.2839 l 0.19128,-0.09847 4.772278,-0.02716 c 2.624753,-0.01495 5.635874,-0.01937 6.69138,-0.0098 2.267456,0.02046 2.041561,-0.01421 2.853177,0.438043 0.451391,0.251525 0.917093,0.603051 0.917093,0.692249 0,0.03671 -1.80426,0.04548 -10.19841,0.04962 -5.609126,0.0028 -10.222839,0.0066 -10.252698,0.0085 -0.02985,0.0018 -0.147862,0.05697 -0.26223,0.122345 l -0.207941,0.118886 -0.001,0.435354 -10e-4,0.435355 1.452064,-0.0108 1.452063,-0.0108 0.171415,-0.10906 c 0.09767,-0.06214 0.229189,-0.190827 0.305698,-0.29912 0.07385,-0.104535 0.16214,-0.227417 0.196189,-0.273068 l 0.06191,-0.083 h 8.963065 c 6.992383,0 8.983953,0.0091 9.05807,0.04155 0.153408,0.0671 0.408042,0.293389 0.698556,0.620786 0.292615,0.329768 0.399682,0.504877 0.343217,0.561341 -0.02282,0.02282 -3.420628,0.03117 -10.221847,0.02514 -12.086452,-0.01067 -11.950177,-0.01128 -12.106765,0.04792 -0.322682,0.121971 -0.373631,0.232143 -0.373631,0.807952 v 0.443707 l 1.128093,-0.009 1.128092,-0.009 0.04058,-0.08492 c 0.02231,-0.0467 0.06188,-0.176624 0.08792,-0.288713 l 0.04734,-0.203799 h 10.352659 10.352659 l 0.08053,0.197923 c 0.171129,0.420625 0.222751,0.601408 0.212449,0.744004 l -0.01043,0.144997 -0.220781,0.02765 c -0.12143,0.0152 -5.203652,0.01859 -11.293827,0.0075 -7.782147,-0.01416 -11.157199,-0.0093 -11.356202,0.01623 -0.195835,0.02516 -0.324153,0.06225 -0.416089,0.120282 l -0.132929,0.08391 v 0.492669 0.49267 l 0.851748,-0.0091 0.85175,-0.0091 0.146091,-0.356647 0.146093,-0.356646 10.768241,-0.0085 10.768242,-0.0085 0.102303,0.212343 c 0.116011,0.240787 0.131242,0.281862 0.19209,0.51804 0.06932,0.269032 0.08674,0.404322 0.05791,0.449766 -0.02119,0.03342 -2.464454,0.044 -11.777287,0.05095 -10.37405,0.0078 -11.760492,0.01475 -11.83546,0.05972 -0.114337,0.0686 -0.271732,0.210002 -0.271732,0.244119 0,0.01519 5.899962,0.02761 13.111028,0.02761 10.466003,0 13.111095,-0.0086 13.111358,-0.04246 1.82e-4,-0.02335 1.91e-4,-1.517448 2.2e-5,-3.320215 -2.06e-4,-2.184362 0.01152,-3.320353 0.03531,-3.405452 0.06125,-0.219531 0.145002,-0.24819 0.67657,-0.231533 0.252778,0.0079 0.551306,0.01557 0.663395,0.01698 l 0.203799,0.0025 0.02208,-0.577429 c 0.01214,-0.317586 0.02743,-0.615301 0.03397,-0.66159 0.01067,-0.07567 -0.0035,-0.08697 -0.140963,-0.112032 -0.545929,-0.09956 -0.618372,-0.118813 -0.874264,-0.232403 -0.07919,-0.03516 -0.15294,-0.06391 -0.163884,-0.06391 -0.06183,0 -0.516727,-0.331793 -0.727498,-0.530623 -0.44364,-0.418507 -0.762978,-0.97104 -0.880999,-1.524343 -0.0863,-0.404581 -0.104632,-0.545539 -0.104632,-0.804457 0,-0.879764 0.34261,-1.740189 0.904403,-2.2712937 0.41851,-0.3956517 0.791329,-0.5896207 1.575143,-0.8195175 0.207169,-0.06076 1.114836,-0.06017 1.341673,8.49e-4 0.448414,0.120681 0.623684,0.1979558 0.991058,0.4369668 0.837579,0.5449257 1.369606,1.5813504 1.369606,2.6680834 0,0.276136 -0.0132,0.379398 -0.10741,0.840294 -0.04439,0.217186 -0.280135,0.741427 -0.433908,0.964928 -0.155819,0.226474 -0.463217,0.548813 -0.679309,0.712325 -0.472608,0.357611 -0.884316,0.534535 -1.479699,0.635875 -0.130771,0.02226 -0.248995,0.05734 -0.26272,0.07797 -0.01372,0.02062 -0.02519,0.25303 -0.02548,0.516453 -5.01e-4,0.461504 0.03341,0.677752 0.115429,0.73613 0.0203,0.01444 0.352758,0.02295 0.738813,0.01892 0.538921,-0.0057 0.71442,0.003 0.755752,0.03734 0.04849,0.04024 0.05384,0.386742 0.05384,3.488108 v 3.44343 h 1.660205 c 1.754978,0 1.817005,0.0051 1.94092,0.158537 0.04404,0.05452 0.0501,0.947697 0.04901,7.195188 -0.0012,6.729068 -0.0148,7.967059 -0.08902,8.109475 -0.02948,0.05651 -1.036711,0.05944 -20.427682,0.05944 -17.939032,0 -20.399004,-0.0061 -20.415902,-0.05006 z m 25.976087,-0.416296 c 0.07616,-0.07616 0.08822,-0.810161 0.07908,-4.815413 -0.0108,-4.721926 -0.0095,-4.693443 -0.252997,-5.281774 -0.178068,-0.430074 -0.270655,-0.603459 -0.452966,-0.848255 -0.221127,-0.296918 -0.231723,-0.3073 -0.483404,-0.473625 -0.386637,-0.255512 -0.69542,-0.342473 -1.216047,-0.342473 -0.533225,0 -0.839403,0.122863 -1.247317,0.500518 -0.428872,0.397061 -0.795198,1.085164 -0.863707,1.622381 -0.01189,0.09341 -0.05133,0.246257 -0.08759,0.339664 -0.06425,0.165496 -0.0657,0.285236 -0.05694,4.69064 0.0074,3.735666 0.01695,4.530403 0.05485,4.576059 0.05947,0.07165 0.450822,0.08231 2.748576,0.07489 1.203356,-0.0039 1.752906,-0.01706 1.778462,-0.04261 z m -24.921546,0.0042 c 0.04862,-0.01866 0.05379,-0.464375 0.0544,-4.695853 6.68e-4,-4.820392 7.89e-4,-4.823706 0.129311,-5.303616 0.06562,-0.244985 0.322317,-0.796846 0.500218,-1.07538 0.342805,-0.536724 0.966585,-0.996115 1.563774,-1.151663 0.214771,-0.05595 0.821096,-0.06499 0.987967,-0.01474 0.06204,0.01868 0.170122,0.05102 0.240177,0.07188 0.07006,0.02085 0.203799,0.07553 0.297206,0.121499 0.79365,0.390622 1.350202,1.118268 1.605723,2.099355 0.105421,0.404774 0.109582,0.602764 0.109582,5.22022 0,3.696808 0.0089,4.67998 0.04246,4.707692 0.0581,0.04793 1.024524,0.05429 1.112291,0.0073 0.06758,-0.03616 0.06804,-0.06863 0.06804,-4.806311 0,-3.907076 0.0082,-4.796225 0.04581,-4.915441 0.02518,-0.08005 0.06548,-0.229611 0.08953,-0.332359 0.116727,-0.498642 0.472549,-1.11859 0.838518,-1.460934 0.386807,-0.36184 0.667832,-0.535047 1.096334,-0.675717 0.3433,-0.112699 1.008167,-0.09777 1.343434,0.03017 0.528993,0.201866 0.982887,0.548862 1.342891,1.026623 0.306419,0.40665 0.442448,0.700042 0.578847,1.248484 0.05989,0.240843 0.06314,0.494284 0.06472,5.059837 9.1e-4,2.643461 0.01444,4.819066 0.03005,4.834678 0.01561,0.01561 0.279032,0.02378 0.585378,0.01814 l 0.556994,-0.01019 0.01962,-4.46658 c 0.01343,-3.056235 0.03249,-4.606007 0.06037,-4.908144 0.0476,-0.51587 0.100932,-0.698927 0.37104,-1.273739 0.350843,-0.746616 0.973736,-1.351695 1.569975,-1.525082 0.08407,-0.02444 0.187959,-0.05813 0.230871,-0.07487 0.185973,-0.07253 0.953581,-0.02658 1.212701,0.07258 0.03736,0.01429 0.12143,0.04583 0.186815,0.07007 0.316598,0.117358 0.779979,0.463378 1.041854,0.777982 0.335827,0.403443 0.633624,1.112513 0.727531,1.732286 0.0201,0.132663 0.03975,2.08281 0.04925,4.886103 0.0087,2.565927 0.02429,4.679062 0.03466,4.695854 0.02977,0.04816 1.114069,0.03863 1.162924,-0.01019 0.0313,-0.0313 0.04076,-1.125598 0.04076,-4.718737 0,-3.139245 0.01177,-4.737485 0.03578,-4.858892 0.01968,-0.0995 0.05165,-0.25734 0.07105,-0.350747 0.109521,-0.527242 0.392426,-1.08927 0.724276,-1.43887 0.341675,-0.35995 0.82464,-0.673595 1.206878,-0.783766 0.08407,-0.02423 0.197163,-0.05755 0.251326,-0.07406 0.222798,-0.06789 0.870109,-0.02858 1.15828,0.07033 0.220887,0.07581 0.611693,0.298459 0.807785,0.460206 0.382908,0.315841 0.615257,0.654013 0.864811,1.258686 0.339335,0.822213 0.328044,0.705991 0.30241,3.112931 -0.05755,5.404412 -0.06545,7.302829 -0.03045,7.324579 0.01958,0.01217 0.308455,0.01449 0.641942,0.0051 l 0.606337,-0.01698 0.01128,-1.664353 c 0.0062,-0.915393 -0.0072,-2.852285 -0.02965,-4.304202 -0.04146,-2.670923 -0.0352,-2.975561 0.07552,-3.6779 0.08965,-0.568659 0.260927,-1.025045 0.542902,-1.446602 0.32695,-0.488798 0.761015,-0.829587 1.335987,-1.048903 0.260814,-0.09949 0.93234,-0.141761 1.158282,-0.07292 0.05415,0.01651 0.167258,0.05052 0.251325,0.0756 0.549445,0.163903 1.169042,0.635469 1.467886,1.117188 0.217621,0.350792 0.419667,0.868993 0.533238,1.367634 0.02555,0.112178 0.03685,1.614193 0.03685,4.895494 0,4.020296 0.0072,4.739624 0.04765,4.773205 0.0476,0.03951 1.031253,0.0507 1.129878,0.01285 0.03741,-0.01435 0.04526,-0.834217 0.04526,-4.724529 0,-3.328894 0.01116,-4.76743 0.03803,-4.913002 0.102885,-0.55679 0.299792,-1.027637 0.627564,-1.50064 0.351256,-0.506891 0.734328,-0.805704 1.32142,-1.030764 0.645034,-0.247273 1.653979,-0.04469 2.267816,0.455333 0.241533,0.196751 0.52487,0.556972 0.719402,0.914613 0.143526,0.26387 0.194394,0.393126 0.289179,0.734816 0.02332,0.08407 0.05992,0.191061 0.08133,0.237765 0.02853,0.06226 0.04139,1.382546 0.04818,4.946843 l 0.0092,4.861929 0.07565,0.02027 c 0.09918,0.02658 0.547464,0.02702 0.616327,5.87e-4 0.04877,-0.01872 0.05374,-0.690563 0.05374,-7.266803 0,-4.580917 -0.01201,-7.253582 -0.03251,-7.266292 -0.11248,-0.06951 -39.849687,-0.07868 -39.937422,-0.0092 -0.03372,0.0267 -0.04246,1.519994 -0.04246,7.262616 0,6.848923 0.0032,7.230815 0.05944,7.263616 0.06466,0.03767 0.479232,0.04944 0.566159,0.01607 z m 5.038317,-0.0307 c 0.03383,-0.01152 0.03866,-0.905183 0.02374,-4.388723 -0.01775,-4.143039 -0.0373,-5.00503 -0.120791,-5.324502 -0.117224,-0.448578 -0.188323,-0.624859 -0.393951,-0.976771 -0.21785,-0.372827 -0.658088,-0.771285 -1.029004,-0.931352 -0.0467,-0.02015 -0.129355,-0.05779 -0.183669,-0.08364 -0.117309,-0.05584 -0.949217,-0.05094 -1.141021,0.0067 -0.382911,0.115101 -0.861885,0.498684 -1.141695,0.914317 -0.292264,0.434133 -0.436927,0.876662 -0.488558,1.494521 -0.04138,0.495116 -0.04311,9.250218 -0.0018,9.291507 0.03132,0.03135 4.384784,0.02932 4.476807,-0.0021 z m 6.587161,0.01222 c 0.06915,-0.05738 0.06439,-9.200561 -0.005,-9.592669 -0.182458,-1.031241 -0.875288,-1.879381 -1.7335,-2.122097 -0.09768,-0.02762 -0.314127,-0.04731 -0.509496,-0.04634 -0.458371,0.0023 -0.769785,0.110964 -1.182298,0.412622 -0.419694,0.306908 -0.835793,1.055947 -0.985898,1.774763 -0.02836,0.135808 -0.03916,1.468187 -0.03935,4.856528 l -2.68e-4,4.669375 0.08492,0.04322 c 0.113451,0.05773 4.301534,0.06215 4.370875,0.0046 z m 6.651032,0.01749 c 0.0452,-0.01734 0.05114,-0.559943 0.05114,-4.668898 0,-3.264209 -0.01116,-4.697485 -0.03741,-4.811103 -0.157153,-0.679814 -0.246992,-0.917344 -0.493588,-1.305024 -0.420749,-0.661467 -0.993012,-0.979703 -1.761733,-0.979703 -0.175652,0 -0.408001,0.02286 -0.516331,0.05078 -0.651831,0.168071 -1.215341,0.728473 -1.502976,1.494684 -0.142323,0.379129 -0.159944,0.473657 -0.221602,1.188823 -0.04042,0.46883 -0.04918,1.324847 -0.04658,4.551498 0.0017,2.185736 0.01276,4.081062 0.02446,4.211831 l 0.02125,0.237765 0.118887,0.02124 c 0.150428,0.02688 4.295504,0.03456 4.364492,0.0081 z m 13.246837,2e-5 c 0.04527,-0.01737 0.05119,-0.558664 0.05119,-4.67791 0,-4.898447 0.0062,-4.659726 -0.13518,-5.252654 -0.07623,-0.319842 -0.259741,-0.703207 -0.463888,-0.969108 -0.226381,-0.294861 -0.744179,-0.729211 -0.869305,-0.729211 -0.0256,0 -0.06104,-0.01263 -0.07879,-0.02806 -0.14073,-0.122379 -1.018364,-0.176817 -1.272042,-0.0789 -0.636018,0.245489 -1.037962,0.618552 -1.341207,1.244838 -0.157445,0.325168 -0.17449,0.367831 -0.217135,0.543461 -0.01815,0.07473 -0.05085,0.20359 -0.0727,0.286364 -0.04801,0.181951 -0.04755,3.165385 7.89e-4,5.182226 0.01747,0.728579 0.03222,2.023213 0.03279,2.876964 9.7e-4,1.441786 0.0053,1.554757 0.06047,1.587153 0.06325,0.03711 4.209707,0.0514 4.304996,0.01484 z m 6.560341,-0.02703 c 0.0266,-0.0098 0.04492,-0.280688 0.05914,-0.874395 0.02624,-1.096129 0.07398,-7.250636 0.06147,-7.925228 -0.01294,-0.697746 -0.05937,-0.921657 -0.329649,-1.589818 -0.146908,-0.363174 -0.321998,-0.602367 -0.645412,-0.881708 -0.290011,-0.250488 -0.450309,-0.348741 -0.698014,-0.427836 -0.143501,-0.04582 -1.126139,-0.0527 -1.212348,-0.0085 -0.03244,0.01664 -0.133238,0.06574 -0.223995,0.109133 -0.426042,0.203655 -0.933815,0.828921 -1.183254,1.457042 -0.182723,0.460121 -0.175793,0.241434 -0.169492,5.349708 0.0056,4.559727 0.0084,4.756692 0.06767,4.789261 0.05941,0.03265 4.185338,0.03489 4.273883,0.0023 z M 18.399298,23.341583 c 0.182321,-0.02499 0.19323,-0.05915 0.07745,-0.242579 -0.117831,-0.186662 -0.22555,-0.419419 -0.22555,-0.48738 0,-0.07908 0.110078,-0.09078 1.043039,-0.110734 0.456931,-0.0098 0.803362,-0.0027 0.878707,0.01821 0.08739,0.02413 0.135441,0.02328 0.161573,-0.0028 0.02237,-0.02237 0.03767,-0.189231 0.03838,-0.418809 l 0.0012,-0.381618 -0.84641,-0.0091 c -0.559396,-0.0061 -0.861874,-0.02193 -0.892013,-0.04695 -0.02509,-0.02082 -0.07519,-0.100786 -0.111353,-0.177718 -0.03616,-0.07692 -0.112408,-0.220878 -0.169435,-0.319887 -0.101248,-0.175782 -0.129482,-0.292756 -0.07821,-0.324022 0.01401,-0.0085 0.384637,-0.0047 0.823613,0.0085 0.438977,0.01324 0.882238,0.01128 0.985026,-0.0042 0.284132,-0.04302 0.309979,-0.09064 0.298341,-0.54978 l -0.0096,-0.377045 -0.856775,-0.01698 c -0.992134,-0.01966 -0.904574,0.01286 -1.130448,-0.419941 -0.230151,-0.441001 -0.296027,-0.410693 0.915592,-0.421235 0.775524,-0.0068 1.04095,-0.0195 1.060929,-0.05095 0.04547,-0.07159 0.03299,-0.628919 -0.01476,-0.659832 -0.02335,-0.01511 -0.363439,-0.02953 -0.755751,-0.03201 -0.915866,-0.0058 -1.103908,-0.04925 -1.103908,-0.255005 0,-0.03285 -0.05346,-0.148393 -0.118801,-0.256748 -0.06534,-0.108356 -0.118838,-0.23346 -0.118886,-0.278015 l -8.8e-5,-0.08101 0.874635,0.02414 c 0.859455,0.02373 1.121904,0.0059 1.209912,-0.08183 0.02413,-0.02408 0.03836,-0.185692 0.03836,-0.43576 v -0.397496 l -0.849159,-0.01849 c -0.467038,-0.01019 -0.852589,-0.02163 -0.856779,-0.02548 -0.0042,-0.0038 -0.03133,-0.05284 -0.0603,-0.10889 -0.03438,-0.06648 -0.07895,-0.102084 -0.128246,-0.102424 -0.12856,-9.1e-4 -0.173484,-0.04755 -0.12785,-0.132826 0.03238,-0.06049 0.0268,-0.10058 -0.03046,-0.218843 -0.08419,-0.173925 -0.08677,-0.211568 -0.01637,-0.23859 0.02955,-0.01128 0.492682,-0.02062 1.029183,-0.02062 0.713397,0 0.986403,-0.01092 1.016212,-0.04076 0.05799,-0.05799 0.05799,-1.728642 0,-1.786632 -0.05854,-0.05855 -2.713111,-0.05855 -2.771658,0 -0.03131,0.03131 -0.04076,1.132465 -0.04076,4.749635 0,2.589881 0.01019,4.719064 0.02264,4.731518 0.02881,0.02881 0.630706,0.02956 0.838759,0.001 z m 31.791563,-0.0039 c 0.0084,-0.01401 0.02654,-1.481539 0.04032,-3.261173 l 0.02505,-3.235697 -1.337537,0.0089 -1.337536,0.0089 -0.0087,3.209823 c -0.0047,1.765404 -0.0015,3.228932 0.0074,3.252283 0.01256,0.03294 0.305419,0.04246 1.305969,0.04246 0.709381,0 1.296656,-0.01152 1.305054,-0.02548 z m -1.310265,-8.491597 c 0.0096,-0.02924 -0.0286,-0.04246 -0.122749,-0.04246 -0.143407,0 -0.218177,0.05116 -0.115647,0.07911 0.100082,0.0273 0.22363,0.0082 0.23839,-0.03665 z m -0.603113,-0.09341 c 0,-0.0283 -0.03019,-0.05095 -0.06793,-0.05095 -0.06767,0 -0.08835,0.0362 -0.04529,0.07925 0.04137,0.04137 0.113221,0.0234 0.113221,-0.0283 z m 0.772882,-0.195307 c -0.0085,-0.0256 -0.09054,-0.04651 -0.206629,-0.05265 -0.155714,-0.0082 -0.192624,-10e-5 -0.192624,0.04246 0,0.04178 0.04264,0.05265 0.206629,0.05265 0.150129,0 0.202799,-0.01165 0.192624,-0.04246 z m 1.197168,-0.0085 c 0,-0.02802 -0.02293,-0.05095 -0.05095,-0.05095 -0.02802,0 -0.05095,0.02293 -0.05095,0.05095 0,0.02802 0.02293,0.05095 0.05095,0.05095 0.02802,0 0.05095,-0.02293 0.05095,-0.05095 z m -2.011217,-0.12394 c 0.0053,-0.02772 -0.02248,-0.09142 -0.0619,-0.141542 -0.05242,-0.06665 -0.102436,-0.09114 -0.186103,-0.09114 -0.06292,0 -0.123593,0.01486 -0.134812,0.03301 -0.03545,0.05737 0.0879,0.203615 0.198653,0.235542 0.130353,0.03758 0.171465,0.02956 0.184167,-0.03587 z m 1.869238,-0.116447 c 0.07809,-0.06684 0.141979,-0.136318 0.141979,-0.154393 0,-0.0733 -0.169964,-0.199608 -0.268588,-0.199608 -0.150384,0 -0.268209,-0.06562 -0.316789,-0.176424 -0.03609,-0.08231 -0.05665,-0.09441 -0.127917,-0.07524 -0.04671,0.01257 -0.138413,0.03394 -0.203798,0.04752 -0.194061,0.04028 -0.825512,0.267849 -0.871895,0.31423 -0.0343,0.0343 -0.03444,0.05989 -6.67e-4,0.127747 0.04143,0.08332 0.0514,0.08523 0.550799,0.105493 0.459978,0.01866 0.7341,0.05767 0.788683,0.112263 0.05122,0.05122 0.178854,0.0091 0.308216,-0.101575 z m 0.603637,-0.235118 c 0.141458,-0.262178 0.181241,-0.390614 0.120984,-0.390614 -0.01582,0 -0.07575,0.02345 -0.13319,0.0521 -0.149368,0.07451 -0.245658,0.255534 -0.245658,0.461825 0,0.246699 0.07845,0.209179 0.257859,-0.123315 z m -3.145348,0.02548 c -2.86e-4,-0.07736 -0.02475,-0.103661 -0.142394,-0.153114 -0.156115,-0.06562 -0.21724,-0.04083 -0.180983,0.07341 0.02435,0.07672 0.167159,0.169533 0.264281,0.171754 0.04261,9.7e-4 0.05935,-0.02509 0.05909,-0.09205 z m 0.70714,-0.209919 c 0.06897,-0.05475 0.178855,-0.113026 0.244212,-0.129519 0.210302,-0.05307 0.167593,-0.125114 -0.133101,-0.224494 -0.14964,-0.04946 -0.316984,-0.08992 -0.371878,-0.08992 -0.09408,0 -0.100762,0.0092 -0.116484,0.161341 -0.0092,0.08874 -0.02212,0.189556 -0.02875,0.224043 -0.0087,0.04569 0.0202,0.07455 0.106815,0.106342 0.166993,0.0613 0.160466,0.06234 0.299196,-0.04779 z m -0.608024,-0.340407 c 0.02442,-0.110054 0.03448,-0.216152 0.02236,-0.235764 -0.0374,-0.06052 -0.33559,-0.177041 -0.426062,-0.166479 -0.08098,0.0095 -0.08623,0.02256 -0.09572,0.239275 -0.0074,0.16989 0.0013,0.22952 0.03397,0.23023 0.0242,5.25e-4 0.112796,0.03647 0.196858,0.07988 0.08407,0.04342 0.168906,0.07309 0.188531,0.06594 0.01962,-0.0072 0.05566,-0.10303 0.08008,-0.213088 z m 3.563471,0.140069 c 0.0069,-0.04703 -0.0072,-0.07377 -0.03882,-0.07377 -0.05595,0 -0.101745,0.09086 -0.07093,0.140723 0.03263,0.05279 0.098,0.01292 0.109751,-0.06696 z m -4.341569,0.02184 c 0,-0.05601 -0.138079,-0.197497 -0.192736,-0.197497 -0.06723,0 -0.05447,0.07049 0.02882,0.159151 0.07919,0.0843 0.163912,0.104123 0.163912,0.03835 z m 4.094029,-0.285719 c 0.05959,-0.01496 0.08801,-0.05561 0.112675,-0.161194 0.01815,-0.07766 0.04836,-0.190076 0.06713,-0.249817 0.04908,-0.156191 -0.01799,-0.206066 -0.189383,-0.140833 -0.103116,0.03924 -0.130953,0.07005 -0.149895,0.165808 -0.01279,0.06468 -0.03887,0.178365 -0.05796,0.252618 -0.03652,0.142081 -0.0024,0.20497 0.09213,0.170189 0.02509,-0.0092 0.08147,-0.02578 0.125297,-0.03677 z m -2.246672,-0.06462 c -0.0022,-0.01868 -0.03287,-0.04925 -0.06841,-0.06794 -0.03553,-0.01868 -0.121167,-0.06927 -0.19029,-0.112419 -0.155895,-0.09731 -0.307349,-0.142392 -0.398356,-0.118595 -0.166468,0.04354 -0.02398,0.158567 0.355172,0.28674 0.182756,0.06178 0.308017,0.06684 0.301887,0.01219 z m -1.818843,-0.137475 c 0.02168,-0.04759 0.03942,-0.126386 0.03942,-0.175118 0,-0.180436 -0.306045,-0.457236 -0.378784,-0.342587 -0.04349,0.06854 -0.03352,0.380991 0.01422,0.446293 0.04509,0.06166 0.185437,0.148901 0.248717,0.154595 0.02036,0.0018 0.05475,-0.03559 0.07643,-0.08318 z m 2.654831,-0.02663 c 0,-0.06836 -0.150008,-0.135493 -0.239369,-0.107131 l -0.07763,0.02464 0.08208,0.06309 c 0.09555,0.07344 0.234925,0.08496 0.234925,0.0194 z m 1.951351,-0.246303 c 0.02675,-0.14255 -0.0017,-0.203671 -0.06866,-0.148024 -0.05897,0.04895 -0.11891,0.257698 -0.09322,0.324654 0.0304,0.07923 0.135366,-0.0353 0.161879,-0.17663 z m -3.713574,-0.01424 c 0.04324,-0.144295 0.0069,-0.399916 -0.08204,-0.576925 -0.06161,-0.122643 -0.281164,-0.155988 -0.348676,-0.05295 -0.08321,0.126991 -0.124556,0.426187 -0.07034,0.508939 0.0402,0.06135 0.365362,0.251877 0.436216,0.255594 0.01326,6.68e-4 0.04243,-0.05989 0.06483,-0.134654 z m 2.808715,0.04252 c -0.0063,-0.03269 -0.03395,-0.05944 -0.06147,-0.05944 -0.0275,0 -0.05517,0.02675 -0.06147,0.05944 -0.008,0.04171 0.01031,0.05944 0.06147,0.05944 0.05116,0 0.0695,-0.01774 0.06147,-0.05944 z M 20.490464,12.753158 c 0.156177,-0.07286 0.124278,-0.12336 -0.07792,-0.12336 -0.458881,0 -1.022313,-0.261143 -1.460633,-0.676979 -0.383908,-0.364218 -0.660541,-0.884116 -0.778397,-1.462903 -0.04229,-0.207657 -0.0464,-0.7602837 -0.0072,-0.9637847 0.05465,-0.2836347 -0.142705,-0.02641 -0.270377,0.352389 -0.08015,0.2378007 -0.111498,0.9211297 -0.05272,1.1490687 0.207668,0.805266 0.67975,1.333977 1.460925,1.636176 0.407315,0.15757 0.952165,0.198627 1.186316,0.08939 z m 27.983033,0.04009 c -0.021,-0.06298 -0.09411,-0.07343 -0.09411,-0.01344 0,0.02958 0.0242,0.05378 0.05378,0.05378 0.02958,0 0.04772,-0.01815 0.04034,-0.04034 z m 2.127217,-0.100131 c 0.107544,-0.049 0.108453,-0.0531 0.0949,-0.42847 l -0.01128,-0.314189 h -0.263453 -0.26345 l -0.03984,0.216206 c -0.05242,0.28446 -0.05128,0.520778 0.0027,0.542524 0.08125,0.03279 0.396463,0.02225 0.480554,-0.01607 z m 0.527516,-0.04509 c 0.124827,-0.06455 0.138296,-0.106463 0.138296,-0.430389 V 11.94691 l -0.178324,0.01031 -0.178323,0.01031 -0.01797,0.32268 c -0.02298,0.412782 0.01601,0.47183 0.236317,0.357904 z m -2.338473,-0.01823 c 0.01715,0 0.03119,-0.03057 0.03119,-0.06793 0,-0.03736 -0.01457,-0.06794 -0.03237,-0.06794 -0.05394,0 -0.205398,0.07707 -0.205398,0.104523 0,0.03602 0.07612,0.06271 0.130153,0.04564 0.02488,-0.0079 0.05927,-0.01429 0.07643,-0.01429 z m -2.448358,-0.100302 c 0,-0.108865 -0.06271,-0.275737 -0.118195,-0.314559 -0.01907,-0.01333 -0.05548,-0.0034 -0.0809,0.02198 -0.07747,0.07745 0.0448,0.392877 0.152302,0.392877 0.02919,0 0.04679,-0.03775 0.04679,-0.100301 z m 0.715342,-0.04406 c 0.0213,-0.0794 0.05249,-0.179468 0.06929,-0.22238 0.04737,-0.120972 0.0363,-0.210748 -0.02888,-0.234267 -0.03269,-0.01177 -0.10001,-0.04952 -0.149601,-0.08385 -0.09478,-0.06561 -0.183299,-0.0806 -0.211019,-0.03575 -0.0091,0.01467 -0.02727,0.12213 -0.04047,0.238821 l -0.024,0.212166 0.146024,0.134808 c 0.08031,0.07415 0.158152,0.13481 0.172976,0.13481 0.01482,0 0.04439,-0.06496 0.06569,-0.144358 z m 2.843406,-0.03496 c 0.02293,-0.09863 0.04168,-0.266758 0.04168,-0.37363 v -0.194312 h -0.118352 -0.118352 l 0.008,0.240002 c 0.0061,0.183768 -0.004,0.246892 -0.04299,0.269406 -0.02802,0.01617 -0.0815,0.05214 -0.118837,0.07991 -0.06586,0.04899 -0.06484,0.05116 0.03397,0.07228 0.05602,0.01201 0.124786,0.03524 0.152808,0.05172 0.09559,0.05618 0.120426,0.03392 0.162108,-0.145377 z m -0.518756,0.0072 c 0,-0.0262 -0.02675,-0.05281 -0.05944,-0.0591 -0.05856,-0.01128 -0.08276,0.0608 -0.03609,0.107459 0.0356,0.0356 0.09553,0.0053 0.09553,-0.04837 z m 2.217687,-0.314412 c -0.0056,-0.136438 -0.02603,-0.24357 -0.04767,-0.250722 -0.06798,-0.02246 -0.124645,0.181243 -0.09868,0.354741 0.03022,0.201905 0.04517,0.226389 0.106925,0.175136 0.03647,-0.03027 0.04673,-0.102958 0.03944,-0.279155 z m -2.90234,0.134376 c 0.114604,-0.04789 0.395328,-0.34557 0.395718,-0.41963 2.22e-4,-0.04204 -0.168606,-0.145229 -0.237591,-0.145229 -0.02056,0 -0.05852,0.05058 -0.08435,0.112408 -0.04616,0.110491 -0.167511,0.193293 -0.283272,0.193293 -0.107944,0 -0.209758,0.09985 -0.209758,0.205725 0,0.09595 0.0062,0.09997 0.153939,0.09997 0.08466,0 0.20406,-0.02094 0.265317,-0.04654 z m -2.205304,-0.43012 c 0.02791,-0.09403 0.04298,-0.191228 0.03348,-0.216005 -0.02324,-0.06057 -0.168546,-0.135796 -0.211288,-0.109375 -0.0669,0.04134 -0.08204,0.280611 -0.02477,0.391362 0.07914,0.153046 0.143786,0.131992 0.202578,-0.06598 z m 1.344485,-0.03102 c 0,-0.05112 0.02187,-0.165628 0.04862,-0.254478 0.0726,-0.241237 0.02403,-0.323609 -0.106391,-0.180424 -0.109484,0.120208 -0.249545,0.445207 -0.224388,0.520683 0.0061,0.01816 0.07201,0.0272 0.14658,0.02009 0.121938,-0.01165 0.135576,-0.02227 0.135576,-0.105857 z m 0.305699,0.03214 c 0,-0.01868 -0.01529,-0.03397 -0.03397,-0.03397 -0.01868,0 -0.03397,0.01529 -0.03397,0.03397 0,0.01868 0.01529,0.03397 0.03397,0.03397 0.01868,0 0.03397,-0.01529 0.03397,-0.03397 z m -0.799695,-0.170725 c 0.09539,-0.181746 0.154527,-0.344943 0.135908,-0.37507 -0.02984,-0.04828 -0.138062,-0.03769 -0.184321,0.01804 -0.05926,0.07139 -0.09234,0.473264 -0.03746,0.45497 0.02298,-0.0076 0.06163,-0.05174 0.08588,-0.09795 z m 1.211639,-0.01974 c -0.0069,-0.03535 -0.01962,-0.157513 -0.02815,-0.271469 -0.0219,-0.292402 0.01201,-0.319288 0.402283,-0.319288 0.339415,0 0.386455,-0.02307 0.439622,-0.215631 0.02253,-0.08158 0.01646,-0.159143 -0.02187,-0.279791 -0.02918,-0.09181 -0.06658,-0.209785 -0.08314,-0.262173 -0.06679,-0.211409 0.273801,-0.3212887 0.441751,-0.142515 0.09325,0.09926 0.141654,0.104947 0.255943,0.03006 0.106634,-0.06986 0.106245,-0.163311 -0.0012,-0.2910017 -0.08647,-0.102763 -0.108817,-0.243106 -0.05281,-0.33164 0.05335,-0.08434 -0.02056,-0.1587257 -0.220094,-0.2214877 -0.134409,-0.04228 -0.240431,-0.05356 -0.357455,-0.03803 -0.185607,0.02463 -0.30905,-0.02369 -0.621286,-0.243156 -0.167665,-0.117843 -0.175843,-0.119857 -0.325378,-0.07986 -0.187249,0.05009 -0.186393,0.04927 -0.141043,0.134005 0.071,0.132684 0.0439,0.203891 -0.106876,0.280818 -0.07897,0.0403 -0.199363,0.1101627 -0.267522,0.1552667 -0.106196,0.07028 -0.148392,0.07877 -0.295023,0.05931 l -0.171099,-0.0227 -0.02311,0.185024 c -0.01329,0.106439 -0.0074,0.2415747 0.01385,0.3181737 0.05753,0.207188 0.04534,0.306078 -0.06455,0.523766 -0.157318,0.311644 -0.127186,0.459478 0.05425,0.266134 0.115526,-0.123109 0.414533,-0.266134 0.556384,-0.266134 0.105057,0 0.101939,-0.0064 0.237567,0.492512 0.01523,0.05605 0.04843,0.176854 0.07377,0.268465 0.04929,0.178196 0.204038,0.375724 0.274805,0.350777 0.02364,-0.0084 0.03731,-0.04409 0.03036,-0.07944 z m 1.379864,-0.01599 c 0.0047,-0.04525 0.0264,-0.19547 0.04817,-0.333841 l 0.0396,-0.251585 -0.09252,-0.07959 c -0.09065,-0.07797 -0.237996,-0.103139 -0.313662,-0.0536 -0.02095,0.01372 -0.03852,0.101381 -0.03901,0.194788 -5.03e-4,0.09341 -0.01116,0.223329 -0.02356,0.288713 -0.02782,0.146064 0.02804,0.231679 0.188869,0.289527 0.150322,0.05407 0.181743,0.04517 0.192122,-0.05442 z m 0.73097,0.0027 c -0.04538,-0.499445 -0.08937,-0.611719 -0.239323,-0.610877 -0.166838,9.09e-4 -0.193081,0.04351 -0.213506,0.346369 -0.01043,0.154819 -0.01237,0.30125 -0.0044,0.325404 0.01055,0.03142 0.07874,0.04109 0.239764,0.03397 0.217181,-0.0096 0.22481,-0.01292 0.217363,-0.09487 z m 0.551252,0.03374 c 0.03013,-0.09496 -0.03912,-0.403788 -0.120597,-0.537782 -0.05423,-0.08916 -0.08662,-0.109557 -0.160517,-0.101041 -0.09216,0.01068 -0.09263,0.01201 -0.102448,0.311233 -0.01165,0.354139 0.01104,0.395747 0.215532,0.395747 0.116727,0 0.150784,-0.01382 0.168033,-0.06817 z m -4.262855,-0.135641 c 0,-0.03774 -0.02264,-0.06794 -0.05095,-0.06794 -0.0283,0 -0.05095,0.0302 -0.05095,0.06794 0,0.03774 0.02264,0.06794 0.05095,0.06794 0.02831,0 0.05095,-0.0302 0.05095,-0.06794 z m 4.562194,-0.02042 c -0.0035,-0.03547 -0.02933,-0.154569 -0.0575,-0.26466 -0.04996,-0.195244 -0.1028,-0.289931 -0.140653,-0.252073 -0.0188,0.0188 0.07672,0.529327 0.108732,0.581125 0.03036,0.04913 0.0959,0.0019 0.08943,-0.06439 z m -2.355695,-0.01104 c 0.0448,-0.08371 0.0091,-0.178769 -0.062,-0.165078 -0.05943,0.0114 -0.08954,0.10331 -0.05949,0.181585 0.02622,0.06834 0.08,0.06103 0.121504,-0.01651 z m -2.331501,-0.367599 c 0.138555,-0.291778 0.149359,-0.353589 0.0729,-0.417049 -0.12274,-0.101866 -0.35549,0.157746 -0.35549,0.396518 0,0.124635 0.07384,0.283771 0.131671,0.283771 0.01425,0 0.08218,-0.118461 0.150924,-0.26324 z m 4.913752,0.05095 c -7.89e-4,-0.113949 -0.08812,-0.343735 -0.136866,-0.359982 -0.04891,-0.0163 -0.03059,0.18515 0.0312,0.343 0.04415,0.112772 0.106379,0.122775 0.105663,0.01698 z m -31.200235,-0.19584 c 0.06536,-0.338592 0.03701,-0.305309 0.260061,-0.305309 0.113633,0 0.2011,-0.01502 0.2011,-0.03454 0,-0.019 -0.06878,-0.100446 -0.152849,-0.180992 l -0.15285,-0.146455 v -0.294536 c 0,-0.1619957 -0.01377,-0.2945367 -0.03059,-0.2945367 -0.01683,0 -0.123879,0.07012 -0.237887,0.15582 l -0.20729,0.1558187 -0.146468,-0.07091 c -0.203673,-0.09859 -0.260886,-0.09291 -0.260886,0.02592 0,0.05326 0.01763,0.14739 0.03917,0.209185 0.03792,0.108793 0.03415,0.117091 -0.118886,0.261684 -0.08692,0.08213 -0.15805,0.163776 -0.15805,0.181429 0,0.01778 0.136863,0.0321 0.306928,0.0321 h 0.306927 l 0.138277,0.220537 c 0.07605,0.1213 0.150746,0.212829 0.165988,0.203408 0.01525,-0.0095 0.03654,-0.0628 0.04731,-0.118631 z M 50.47852,10.820776 c 0.04225,-0.05091 0.0051,-0.269162 -0.04899,-0.287165 -0.04032,-0.01344 -0.09413,0.245815 -0.06184,0.298042 0.02719,0.04399 0.06867,0.03992 0.110831,-0.01092 z m 0.441836,-0.06511 c 0.01302,-0.112215 -0.146478,-0.435574 -0.214849,-0.435574 -0.07873,0 -0.06607,0.296525 0.0186,0.435388 0.08195,0.134419 0.180675,0.134512 0.196258,1.85e-4 z m 0.306202,-0.118571 c -0.01653,-0.08521 -0.0959,-0.09692 -0.0959,-0.01413 0,0.04172 0.02193,0.07076 0.05344,0.07076 0.03163,0 0.04895,-0.02311 0.04246,-0.05663 z m -4.817227,-0.07924 c 0,-0.01868 -0.0068,-0.03397 -0.01497,-0.03397 -0.0082,0 -0.02443,0.01529 -0.03597,0.03397 -0.01152,0.01868 -0.0047,0.03397 0.01498,0.03397 0.01979,0 0.03597,-0.01529 0.03597,-0.03397 z m 5.027026,-0.05095 c 0,-0.02802 -0.01529,-0.05095 -0.03397,-0.05095 -0.01868,0 -0.03397,0.02293 -0.03397,0.05095 0,0.02802 0.01529,0.05095 0.03397,0.05095 0.01868,0 0.03397,-0.02293 0.03397,-0.05095 z m -4.24539,-0.06794 c 0.0136,-0.03736 0.0108,-0.105286 -0.0062,-0.15094 l -0.03089,-0.08301 -0.121807,0.121807 c -0.137259,0.137259 -0.126176,0.206239 0.03061,0.190481 0.06658,-0.0067 0.112359,-0.03466 0.128258,-0.07834 z m 3.87176,-0.09511 c 0,-0.04895 -0.06636,-0.125675 -0.108695,-0.125675 -0.04122,0 -0.03249,0.083 0.01359,0.129072 0.05334,0.05334 0.09511,0.05185 0.09511,-0.0034 z"
       id="path2" /><circle
       style="fill:none;stroke:#000000;stroke-width:0.4;stroke-linecap:square;stroke-miterlimit:50;stroke-dasharray:none;stroke-opacity:1"
       id="path1-60"
       cx="185.14323"
       cy="34.066666"
       r="33.866665" /><circle
       style="fill:none;stroke:#000000;stroke-width:0.4;stroke-linecap:square;stroke-miterlimit:50;stroke-dasharray:none;stroke-opacity:1"
       id="path1-4"
       cx="262.87659"
       cy="34.066666"
       r="33.866665" /><circle
       style="fill:none;stroke:#000000;stroke-width:0.4;stroke-linecap:square;stroke-miterlimit:50;stroke-dasharray:none;stroke-opacity:1"
       id="path1-9"
       cx="340.60992"
       cy="34.066666"
       r="33.866665" /><circle
       style="fill:none;stroke:#000000;stroke-width:0.4;stroke-linecap:square;stroke-miterlimit:50;stroke-dasharray:none;stroke-opacity:1"
       id="path1-2"
       cx="418.34326"
       cy="34.066666"
       r="33.866665" /><g
       id="layer1-8"
       transform="matrix(0.33974948,0,0,0.33974948,73.062453,0.14032765)"><path
         d="m 75.145251,99.966167 c -1.487173,0.842893 -3.039253,1.548083 -4.630619,2.140373 a 32.064526,32.064526 0 0 1 -0.311923,0.11774 c -1.570423,0.56598 -3.181025,1.00863 -4.820347,1.32359 a 32.064526,32.064526 0 0 1 -0.322858,0.0573 c -1.671672,0.3035 -3.367529,0.489 -5.077602,0.52352 v 0.0682 a 16.35157,22.206468 0 0 1 15.96149,22.18194 16.35157,22.206468 0 0 1 -15.96149,22.13694 v 11.15271 l 0.787206,0.002 A 32.064526,32.064526 0 0 0 91.65599,127.73903 32.064526,32.064526 0 0 0 75.618605,99.96753 Z"
         style="fill:#ffa101;stroke-width:0.373367;stroke-linecap:round;paint-order:stroke markers fill"
         id="path109" /><path
         d="m 59.981902,40.058168 v 12.779867 c 8.872403,0.277578 15.956732,9.777008 15.964062,21.406327 -0.0254,11.612318 -7.104597,21.085462 -15.964062,21.362597 v 0.08237 c -0.130096,-0.0061 -0.26023,-0.01065 -0.390387,-0.01475 -1.745777,0.02305 -3.486776,0.188695 -5.205588,0.495212 -0.113342,0.01987 -0.227131,0.03749 -0.340223,0.0585 -1.680516,0.313227 -3.333311,0.76035 -4.942544,1.337087 -0.108152,0.03872 -0.215106,0.08093 -0.322856,0.120906 -1.638869,0.601919 -3.225856,1.336688 -4.745099,2.196984 -0.02145,0.01342 -0.04288,0.02705 -0.06432,0.04057 -10.093793,5.630412 -16.376309,16.257472 -16.443845,27.815232 0.06174,17.18383 13.659066,31.2642 30.830281,31.92555 l 1.624576,0.004 V 148.5159 c -0.129919,0.0253 -0.260057,0.0485 -0.390387,0.0695 -9.030552,-2.6e-4 -16.351203,-9.94234 -16.351233,-22.20641 3e-5,-12.26405 7.320681,-22.20612 16.351233,-22.20639 0.130216,-0.0138 0.260349,-0.0284 0.390387,-0.0436 1.703752,-0.0393 3.401677,-0.21435 5.077603,-0.52351 0.10753,-0.0196 0.215558,-0.0366 0.322857,-0.0573 1.638771,-0.31509 3.250462,-0.75763 4.820348,-1.32358 0.104542,-0.0377 0.20776,-0.0789 0.311923,-0.11774 1.597929,-0.58935 3.14638,-1.30507 4.630619,-2.140383 0.07178,-0.04497 0.143386,-0.09025 0.21481,-0.135699 C 85.368133,94.178265 91.585374,83.601492 91.65599,72.107846 91.649156,54.556314 77.532133,40.271888 59.981902,40.058168 Z"
         style="fill:#00bbcc;stroke-width:0.373367;stroke-linecap:round;paint-order:stroke markers fill"
         id="path108" /><path
         d="m 59.591515,40.043375 a 32.064526,32.064526 0 0 0 -32.06447,32.064471 32.064526,32.064526 0 0 0 16.379531,27.774716 l 0.128629,6.35e-4 c 1.522433,-0.868133 3.113307,-1.592167 4.745099,-2.196964 a 32.064526,32.064526 0 0 1 0.322856,-0.120906 c 1.609784,-0.577044 3.26142,-1.023737 4.942544,-1.337097 a 32.064526,32.064526 0 0 1 0.340223,-0.0585 c 1.714272,-0.300482 3.452974,-0.477344 5.205588,-0.495221 a 16.354428,21.430129 0 0 1 -16.35445,-21.430153 16.354428,21.430129 0 0 1 16.35445,-21.430123 16.354428,21.430129 0 0 1 0.390387,0.0238 V 40.058168 a 32.064526,32.064526 0 0 0 -0.390387,-0.0148 z"
         style="fill:#ffa101;stroke-width:0.373367;stroke-linecap:round;paint-order:stroke markers fill"
         id="path110" /><path
         d="m 111.95546,136.60852 c 3.2878,0.006 6.40399,1.5145 8.50876,4.11931 1.66923,2.05462 2.5865,4.64816 2.59186,7.3286 -0.0307,2.64172 -0.94642,5.19118 -2.59186,7.21607 -2.08371,2.64687 -5.20299,4.19826 -8.50876,4.23186 -3.26269,-0.0378 -6.34405,-1.554 -8.42516,-4.1457 -1.69403,-2.03554 -2.64117,-4.62 -2.6761,-7.30223 0.0349,-2.68222 0.98207,-5.26667 2.6761,-7.30222 2.08111,-2.59168 5.16247,-4.10791 8.42516,-4.14569 z"
         style="fill:#ffa101;stroke-width:0.559889;stroke-linecap:round;paint-order:stroke markers fill"
         id="path112" /><path
         d="m 158.21149,136.64196 c 2.10352,0.006 4.16197,0.62923 5.93555,1.79566 3.2094,2.09435 5.1576,5.73548 5.16507,9.65226 -0.0253,1.00019 -0.17742,1.99266 -0.45277,2.95202 -1.28894,4.9819 -5.64824,8.46046 -10.64785,8.49655 -2.05069,-0.0364 -4.05157,-0.6579 -5.78057,-1.79566 -3.26889,-2.05609 -5.27961,-5.7044 -5.32006,-9.65291 0.006,-1.15453 0.18283,-2.30135 0.52223,-3.40157 1.44188,-4.77819 5.72604,-8.03688 10.5784,-8.04635 z"
         style="fill:#00bbcc;stroke-width:0.559889;stroke-linecap:round;paint-order:stroke markers fill"
         id="path113" /><path
         d="m 120.46422,40.207376 v 6.237832 0.619346 15.222518 c 3.7063,-3.00954 8.29477,-4.67964 13.04033,-4.746384 0.13511,0.0051 0.27019,0.01158 0.40519,0.01929 11.62546,0.224174 20.93687,9.851528 20.94519,21.655866 -0.0352,6.030913 -2.54412,11.77436 -6.92342,15.849578 -3.9183,3.711292 -9.06822,5.791038 -14.42696,5.826228 -0.69435,-0.058 -1.38547,-0.15055 -2.0709,-0.27721 l 6.30663,17.15839 6.68289,18.1829 c 3.47144,-4.00853 8.49288,-6.33034 13.78832,-6.37547 0.90654,0.007 1.81131,0.0819 2.70697,0.22252 l -6.64429,-17.77256 c 11.20722,-7.13628 18.00739,-19.504861 18.03692,-32.806659 -0.004,-21.443784 -17.30089,-38.857235 -38.70941,-38.969883 l -0.26563,-0.0012 -5.90468,-0.02058 z"
         style="fill:#00bbcc;stroke-width:0.0976625;stroke-linecap:round;paint-order:stroke markers fill"
         id="path114" /><path
         d="m 103.5303,40.147564 v 38.145375 1.92428 51.473191 c 2.59819,-1.3763 5.48663,-2.11119 8.42516,-2.14358 2.96261,0.002 5.88101,0.72071 8.50876,2.09213 V 111.4456 47.064554 46.445208 40.207376 l -2.29601,-0.0077 z"
         style="fill:#ffa101;stroke-width:0.0976625;stroke-linecap:round;paint-order:stroke markers fill"
         id="path111" /></g></g></svg>
